<?xml version="1.0" encoding="UTF-8"?>
<!DOCTYPE svg PUBLIC "-//W3C//DTD SVG 1.0//EN" "http://www.w3.org/TR/2001/REC-SVG-20010904/DTD/svg10.dtd">
<!-- Creator: CorelDRAW 2019 (64 Bit) -->
<svg xmlns="http://www.w3.org/2000/svg" xml:space="preserve" width="7.99044cm" height="13.5467cm" version="1.0" style="shape-rendering:geometricPrecision; text-rendering:geometricPrecision; image-rendering:optimizeQuality; fill-rule:evenodd; clip-rule:evenodd"
viewBox="0 0 1.19475 2.02553"
 xmlns:xlink="http://www.w3.org/1999/xlink">
 <defs>
  <style type="text/css">
   <![CDATA[
    .fil1 {fill:#E6E7E8}
    .fil0 {fill:#D2D3D5}
    .fil4 {fill:#D2D3D5}
    .fil8 {fill:black}
    .fil3 {fill:#6A5C69}
    .fil2 {fill:#7E707D}
    .fil6 {fill:#A1D4FF}
    .fil7 {fill:#FDD76F}
    .fil5 {fill:#FDE588}
   ]]>
  </style>
 </defs>
 <g id="Camada_x0020_1">
  <metadata id="CorelCorpID_0Corel-Layer"/>
  <path class="fil0" d="M0.28111 0.15796l0 0.2715 0.2722 0 0 -0.17584 0 -0.09566c0,-0.0203 -0.01661,-0.03701 -0.03704,-0.03701l-0.19823 -0c-0.02032,0 -0.03693,0.01671 -0.03693,0.03701z"/>
  <path class="fil1" d="M0.45409 0.15796l0 0.23191 0.05601 0 -0.19932 0 0 -0.13625 0 -0.09566c0,0 -0.45777,-0 0.14331,-0z"/>
  <path class="fil2" d="M0.14495 0.58365l0.54441 0 0 -0.14399c0,-0.02736 -0.02234,-0.04979 -0.04973,-0.04979l-0.08632 -0 -0.37869 0 0 0c-0.02728,0 -0.04973,0.02243 -0.04973,0.04979l0 0.14399 0.02006 0z"/>
  <path class="fil3" d="M0.55994 0.43966l0 0.10441 0.02245 0 -0.40777 0 0 -0.10441c0,0 0.38531,-0 0.38531,-0z"/>
  <path class="fil1" d="M0.02968 0.63692l0 0.28473c0,0 0.10978,-0.10171 0.28197,-0.06471 0.17219,0.03689 0.36234,0.08052 0.49311,-0.05013l0 -0.16989c0,-0.05103 -0.04187,-0.09285 -0.09294,-0.09285l-0.02245 -0 -0.56447 0 0 0c-0.05107,0 -0.09283,0.04183 -0.09283,0.09285l-0.00239 0z"/>
  <path class="fil4" d="M0.67522 0.63692l0 0.20522c0.04703,-0.0129 0.09092,-0.03622 0.12954,-0.0748l0 -0.13042c0,-0.05103 -0.04187,-0.09285 -0.09294,-0.09285l-0.02245 0 -0.51474 0c0.05107,0 -0.14101,0.00863 -0.14495,0.09285l0.64554 0z"/>
  <path class="fil5" d="M0.02968 0.88206l0 1.02094c0,0.05103 0.04176,0.09285 0.09283,0.09285l0.58931 0c0.05107,0 0.09294,-0.04183 0.09294,-0.09285l0 -1.13566c-0.13077,0.13053 -0.32092,0.08691 -0.49311,0.05002 -0.17219,-0.0369 -0.28197,0.0647 -0.28197,0.0647l0 -0z"/>
  <path class="fil6" d="M0.25204 1.21199l0 0.11595c0,0.01122 0.00909,0.02041 0.02032,0.02041l0.06645 0 0 0.06628c0,0.01122 0.00909,0.02041 0.02032,0.02041l0.11606 0c0.01122,0 0.02043,-0.00919 0.02043,-0.02041l0 -0.06628 0.06634 0c0.01122,0 0.02043,-0.00919 0.02043,-0.02041l0 -0.11595c0,-0.01122 -0.00921,-0.02041 -0.02043,-0.02041l-0.06634 0 0 -0.06628c0,-0.01122 -0.00921,-0.0203 -0.02043,-0.0203l-0.11607 0c-0.01122,0 -0.02032,0.00908 -0.02032,0.0203l0 0.06628 -0.06645 -0c-0.01122,0 -0.02032,0.00919 -0.02032,0.02041z"/>
  <path class="fil7" d="M0.67522 0.84214l0 1.06086c0,0.05103 -0.04176,0.09285 -0.09283,0.09285l0.12942 0c0.05107,0 0.09294,-0.04183 0.09294,-0.09285l0 -1.13566c-0.03861,0.03858 -0.0825,0.0619 -0.12954,0.0748l0 -0z"/>
  <path class="fil8" d="M0.87726 0.36878c-0.01159,-0.01158 -0.03032,-0.01153 -0.0419,0.00006 -0.01159,0.01159 -0.01153,0.03043 0.00006,0.04202 0.00579,0.00579 0.01339,0.00869 0.02098,0.00869 0.00759,0 0.01519,-0.0029 0.02098,-0.00869 0.01159,-0.01159 0.01159,-0.03038 0,-0.04196l-0.00011 -0.00011z"/>
  <path class="fil8" d="M1.01073 0.03241l-0.00011 0c-0.01639,0 -0.02962,0.01329 -0.02962,0.02967 0,0.01639 0.01334,0.02967 0.02973,0.02967 0.01639,0 0.02967,-0.01329 0.02967,-0.02967 0,-0.01639 -0.01329,-0.02967 -0.02967,-0.02967l0 0z"/>
  <path class="fil8" d="M1.16508 0.05934c0.01639,0 0.02967,-0.01329 0.02967,-0.02967 0,-0.01639 -0.01329,-0.02967 -0.02967,-0.02967l-0.00011 0c-0.01639,0 -0.02962,0.01329 -0.02962,0.02967 0,0.01639 0.01334,0.02967 0.02973,0.02967l0 -0z"/>
  <path class="fil8" d="M0.85684 0.06482l-0.00045 0c-0.01639,0 -0.02967,0.01329 -0.02967,0.02967 0,0.01639 0.01329,0.02967 0.02967,0.02967l0.00045 -0c0.01639,0 0.02967,-0.01329 0.02967,-0.02967 0,-0.01639 -0.01329,-0.02967 -0.02967,-0.02967l0 0z"/>
  <path class="fil8" d="M0.77748 0.27163c0.01639,0 0.02967,-0.01329 0.02967,-0.02967l0 -0.00011c0,-0.01639 -0.01329,-0.02962 -0.02967,-0.02962 -0.01639,0 -0.02967,0.01334 -0.02967,0.02973 0,0.01639 0.01329,0.02967 0.02967,0.02967z"/>
  <path class="fil8" d="M1.01062 0.3925c-0.01639,0 -0.02967,0.01329 -0.02967,0.02967l0 0.00011c0,0.01639 0.01329,0.02962 0.02967,0.02962 0.01639,0 0.02967,-0.01334 0.02967,-0.02973 0,-0.01639 -0.01329,-0.02967 -0.02967,-0.02967z"/>
  <path class="fil8" d="M1.16508 0.42491l-0.00011 0c-0.01639,0 -0.02962,0.01329 -0.02962,0.02967 0,0.01639 0.01334,0.02967 0.02973,0.02967 0.01639,0 0.02967,-0.01329 0.02967,-0.02967 0,-0.01639 -0.01329,-0.02967 -0.02967,-0.02967z"/>
  <path class="fil8" d="M0.9854 0.24174c0,-0.01639 -0.01329,-0.02962 -0.02967,-0.02962 -0.01639,0 -0.02967,0.01334 -0.02967,0.02973 0,0.01639 0.01329,0.02967 0.02967,0.02967 0.01639,0 0.02967,-0.01329 0.02967,-0.02967l0 -0.00011z"/>
  <path class="fil8" d="M1.16371 0.24174c0,-0.01639 -0.01334,-0.02967 -0.02973,-0.02967 -0.01639,0 -0.02967,0.01329 -0.02967,0.02967 0,0.01639 0.01329,0.02967 0.02967,0.02967l0.00011 -0c0.01639,0 0.02962,-0.01329 0.02962,-0.02967l-0 0z"/>
  <path class="fil8" d="M0.47519 1.07533l-0.11606 0c-0.02756,0 -0.04999,0.02241 -0.04999,0.04997l0 0.03661 -0.03678 -0c-0.02756,0 -0.04999,0.02247 -0.04999,0.05008l0 0.11596c0,0.02761 0.02242,0.05008 0.04999,0.05008l0.03678 0 0 0.0366c0,0.02761 0.02242,0.05008 0.04999,0.05008l0.11606 -0c0.02763,0 0.0501,-0.02247 0.0501,-0.05008l0 -0.0366 0.03667 0c0.02763,0 0.0501,-0.02247 0.0501,-0.05008l0 -0.11596c0,-0.02761 -0.02247,-0.05008 -0.0501,-0.05008l-0.03667 0 0 -0.03661c0,-0.02755 -0.02247,-0.04997 -0.0501,-0.04997l0 0zm0.07753 0.14592l0 0.09743 -0.0571 -0c-0.01639,0 -0.02967,0.01329 -0.02967,0.02967l0 0.05702 -0.09747 0 0 -0.05702c0,-0.01639 -0.01329,-0.02967 -0.02967,-0.02967l-0.0571 0 0 -0.09743 0.0571 0c0.01639,0 0.02967,-0.01329 0.02967,-0.02967l0 -0.05691 0.09747 0 0 0.05691c0,0.01639 0.01329,0.02967 0.02967,0.02967l0.0571 0z"/>
  <path class="fil8" d="M0.55927 1.74572l-0.28421 0c-0.01639,0 -0.02967,0.01329 -0.02967,0.02967 0,0.01639 0.01329,0.02967 0.02967,0.02967l0.28421 0c0.01639,0 0.02967,-0.01329 0.02967,-0.02967 0,-0.01639 -0.01329,-0.02967 -0.02967,-0.02967z"/>
  <path class="fil8" d="M0.55927 1.61877l-0.28421 0c-0.01639,0 -0.02967,0.01329 -0.02967,0.02967 0,0.01639 0.01329,0.02967 0.02967,0.02967l0.28421 -0c0.01639,0 0.02967,-0.01329 0.02967,-0.02967 0,-0.01639 -0.01329,-0.02967 -0.02967,-0.02967l0 0z"/>
  <path class="fil8" d="M0.80476 1.55261c-0.01639,0 -0.02967,0.01329 -0.02967,0.02967l0 0.32073c0,0.03484 -0.02839,0.06318 -0.06327,0.06318l-0.58931 0c-0.03483,0 -0.06316,-0.02834 -0.06316,-0.06318l0 -0.75595c0,-0.01639 -0.01329,-0.02967 -0.02967,-0.02967 -0.01639,0 -0.02967,0.01329 -0.02967,0.02967l0 0.75595c0,0.06756 0.05495,0.12252 0.1225,0.12252l0.58931 0c0.06761,0 0.12262,-0.05497 0.12262,-0.12252l0 -0.32073c-0,-0.01639 -0.01329,-0.02967 -0.02967,-0.02967z"/>
  <path class="fil8" d="M0.71903 0.51462l0 -0.07496c0,-0.04381 -0.03562,-0.07946 -0.0794,-0.07946l-0.05665 0 0 -0.20224c0,-0.03676 -0.02993,-0.06668 -0.06671,-0.06668l-0.19823 0c-0.03672,0 -0.0666,0.02991 -0.0666,0.06668l0 0.20224 -0.05676 -0c-0.04378,0 -0.0794,0.03564 -0.0794,0.07946l0 0.07496c-0.06419,0.00375 -0.11528,0.05716 -0.11528,0.1223l0 0.37321c0,0.01639 0.01329,0.02967 0.02967,0.02967 0.01639,0 0.02967,-0.01329 0.02967,-0.02967l0 -0.11401c0.02839,-0.02143 0.11754,-0.07729 0.24608,-0.04976l0.00904 0.00194c0.03003,0.00644 0.06074,0.01303 0.09173,0.01881 0.00339,0.00135 0.00708,0.00211 0.01095,0.00211 0.00017,0 0.00032,-0.00002 0.00049,-0.00002 0.12438,0.02229 0.25238,0.02965 0.35744,-0.03952l0 0.61555c0,0.01639 0.01329,0.02967 0.02967,0.02967 0.01639,0 0.02967,-0.01329 0.02967,-0.02967l0 -0.80831c0,-0.06514 -0.05113,-0.11854 -0.11539,-0.1223l0 0zm-0.40825 -0.35666c0,-0.00391 0.00339,-0.00733 0.00726,-0.00733l0.19823 0c0.004,0 0.00737,0.00336 0.00737,0.00733l0 0.06599 -0.08639 0c-0.01639,0 -0.02967,0.01329 -0.02967,0.02967 0,0.01639 0.01329,0.02967 0.02967,0.02967l0.08639 -0 0 0.07691 -0.21286 0 0 -0.20224zm0.0767 0.64507c-0.0202,-0.00409 -0.04042,-0.00842 -0.06056,-0.01274l-0.00906 -0.00194c-0.11654,-0.02497 -0.20656,0.0082 -0.25852,0.03734l0 -0.18877c0,-0.03484 0.02833,-0.06318 0.06316,-0.06318l0.26498 0 0 0.22929zm-0.21286 -0.28864l0 -0.07473c0,-0.0109 0.00919,-0.02012 0.02006,-0.02012l0.44496 0c0.01106,0 0.02006,0.00902 0.02006,0.02012l0 0.07473 -0.48507 0zm0.60046 0.24023c-0.08821,0.08058 -0.20579,0.07975 -0.32826,0.05945l0 -0.24033 0.26498 -0c0.03489,0 0.06327,0.02834 0.06327,0.06318l0 0.1177z"/>
 </g>
</svg>
