<?xml version="1.0" encoding="UTF-8"?>
<!DOCTYPE svg PUBLIC "-//W3C//DTD SVG 1.0//EN" "http://www.w3.org/TR/2001/REC-SVG-20010904/DTD/svg10.dtd">
<!-- Creator: CorelDRAW 2019 (64 Bit) -->
<svg xmlns="http://www.w3.org/2000/svg" xml:space="preserve" width="13.5467cm" height="13.5466cm" version="1.0" style="shape-rendering:geometricPrecision; text-rendering:geometricPrecision; image-rendering:optimizeQuality; fill-rule:evenodd; clip-rule:evenodd"
viewBox="0 0 1.85246 1.85245"
 xmlns:xlink="http://www.w3.org/1999/xlink">
 <defs>
  <style type="text/css">
   <![CDATA[
    .fil2 {fill:#E6E7E8}
    .fil3 {fill:black}
    .fil1 {fill:#FDD76F}
    .fil0 {fill:#FDE588}
   ]]>
  </style>
 </defs>
 <g id="Camada_x0020_1">
  <metadata id="CorelCorpID_0Corel-Layer"/>
  <polygon class="fil0" points="0.05521,1.22703 0.63195,1.80387 0.6535,1.82532 0.75493,1.72389 0.55571,1.31084 0.12856,1.09753 0.02713,1.19895 "/>
  <polygon class="fil0" points="1.33592,0.52607 1.7239,0.75492 1.82533,0.65349 1.80388,0.63194 1.22703,0.0552 1.19896,0.02713 1.09753,0.12855 "/>
  <path class="fil0" d="M0.17663 1.1456l0.15965 0.15965 0.96897 -0.96897 -0.15965 -0.15965c-0.10567,0.09552 -0.32126,0.28221 -0.44818,0.3395 -0.09065,0.04092 -0.14027,0.09044 -0.1813,0.1813 -0.05729,0.12691 -0.24398,0.3425 -0.3395,0.44817l-0 0z"/>
  <path class="fil0" d="M0.5613 1.53026l0.13841 0.13841c0.14048,-0.11624 0.37566,-0.33535 0.50464,-0.46433 0.12898,-0.12898 0.3481,-0.36415 0.46433,-0.50464l-0.13841 -0.13841 -0.96897 0.96897z"/>
  <polygon class="fil1" points="0.56115,1.5302 1.52997,0.56137 1.58622,0.61762 0.61739,1.58644 "/>
  <polygon class="fil0" points="0.30841,1.27738 0.44796,1.41693 0.44879,1.41776 1.41776,0.44878 1.27738,0.3084 "/>
  <polygon class="fil0" points="0.4203,1.38926 0.5613,1.53026 1.53027,0.56129 1.41776,0.44878 "/>
  <polygon class="fil1" points="0.33617,1.30518 1.305,0.33635 1.36125,0.3926 0.39242,1.36142 "/>
  <polygon class="fil1" points="0.44866,1.41769 1.41749,0.44886 1.47374,0.50511 0.50491,1.47393 "/>
  <path class="fil1" d="M0.2247 1.19367l0.05584 0.05584c0.09552,-0.10567 0.28127,-0.31836 0.33857,-0.44527 0.04103,-0.09086 0.09065,-0.14038 0.1813,-0.1813 0.12691,-0.05729 0.38373,-0.28998 0.44911,-0.3424l-0.05584 -0.05584c-0.10567,0.09552 -0.32126,0.28221 -0.44818,0.3395 -0.09065,0.04092 -0.14027,0.09044 -0.1813,0.1813 -0.05729,0.12691 -0.24398,0.3425 -0.3395,0.44817l-0 0z"/>
  <path class="fil2" d="M0.12856 1.09753l0.09614 0.09614c0.09552,-0.10567 0.28221,-0.32126 0.3395,-0.44818 0.04103,-0.09086 0.09065,-0.14038 0.1813,-0.1813 0.12691,-0.05729 0.3425,-0.24398 0.44818,-0.3395l-0.09614 -0.09614c-0.14069,0.14069 -0.27558,0.24833 -0.40943,0.30883 -0.07128,0.03212 -0.11728,0.06517 -0.14991,0.1008 -0.03564,0.03263 -0.06869,0.07863 -0.1008,0.14991 -0.0605,0.13385 -0.16814,0.26874 -0.30883,0.40943l0 -0z"/>
  <path class="fil2" d="M1.63491 0.66593c-0.11624,0.14048 -0.33546,0.37566 -0.46434,0.50464 -0.12898,0.12888 -0.36415,0.3481 -0.50464,0.46433l0.08899 0.08899c0.1784,-0.14369 0.35089,-0.29412 0.51406,-0.45491 0.16079,-0.16317 0.31121,-0.33567 0.45491,-0.51406l-0.08899 -0.08899z"/>
  <path class="fil3" d="M1.84451 0.63431l-0.01026 -0.01026c0.01654,-0.06606 0.0091,-0.1414 -0.02193,-0.21913 -0.03029,-0.0759 -0.08107,-0.15056 -0.14686,-0.2159 -0.0652,-0.06477 -0.13932,-0.11455 -0.21434,-0.14397 -0.07674,-0.0301 -0.15105,-0.03698 -0.21617,-0.0203l-0.01681 -0.0168c-0.0106,-0.01059 -0.02778,-0.01059 -0.03837,0l-0.10143 0.10143c-0.14962,0.14962 -0.28093,0.24883 -0.40139,0.30328 -0.06988,0.03149 -0.12012,0.0653 -0.15797,0.10634 -0.04104,0.03785 -0.07485,0.08809 -0.10632,0.15794 -0.05446,0.12049 -0.15367,0.2518 -0.30329,0.40142l-0.10143 0.10142c-0.0106,0.01059 -0.0106,0.02777 -0,0.03837l0.0168 0.01681c-0.01667,0.06513 -0.00979,0.13944 0.0203,0.21618 0.02942,0.07502 0.07921,0.14914 0.14397,0.21434 0.06535,0.06579 0.14001,0.11657 0.2159,0.14686 0.05089,0.02031 0.10077,0.03054 0.14768,0.03054 0.02474,0 0.04864,-0.00289 0.07145,-0.00861l0.01026 0.01026c0.0053,0.0053 0.01224,0.00795 0.01919,0.00795 0.00694,0 0.01389,-0.00265 0.01919,-0.00795l0.10042 -0.10042c0.19337,-0.15581 0.36182,-0.3049 0.51493,-0.45577 0.00009,-0.00009 0.00019,-0.00019 0.00028,-0.00028 0.15087,-0.15311 0.29997,-0.32156 0.45577,-0.51493l0.10042 -0.10042c0.0106,-0.01059 0.0106,-0.02778 0,-0.03837l-0 -0zm-1.38238 0.06493c0.02858,-0.06343 0.05857,-0.10825 0.09439,-0.14104 0.00059,-0.00054 0.00115,-0.0011 0.00169,-0.00169 0.03279,-0.03582 0.07761,-0.06581 0.14107,-0.0944 0.12127,-0.05481 0.25169,-0.15151 0.39816,-0.29527l0.0568 0.0568c-0.10032,0.08965 -0.30158,0.2624 -0.41991,0.31582 -0.0966,0.04361 -0.15124,0.09825 -0.19487,0.19487 -0.05342,0.11833 -0.22617,0.31959 -0.31582,0.41991l-0.0568 -0.0568c0.14376,-0.14647 0.24046,-0.2769 0.29529,-0.3982l-0 -0zm0.09916 0.79264l-0.07413 -0.07413 0.9306 -0.9306 0.07413 0.07413 -0.9306 0.9306zm0.96897 -0.89222l0.0679 0.0679c-0.11773,0.13988 -0.32158,0.3585 -0.44678,0.4838 -0.12532,0.12521 -0.34394,0.32907 -0.48381,0.4468l-0.0679 -0.0679 0.9306 -0.9306zm-1.08148 0.77971l-0.07413 -0.07413 0.93059 -0.9306 0.07413 0.07413 -0.93059 0.9306zm-0.11251 -0.11251l-0.07419 -0.07419c0.10531,-0.1176 0.27149,-0.31339 0.32684,-0.43602 0.03804,-0.08425 0.08351,-0.12971 0.16773,-0.16773 0.12262,-0.05536 0.31842,-0.22154 0.43602,-0.32684l0.07419 0.07419 -0.9306 0.9306zm0.31722 0.52007l-0.26944 -0.26944c-0.0106,-0.0106 -0.02778,-0.0106 -0.03837,0 -0.0106,0.0106 -0.0106,0.02778 0,0.03837l0.23145 0.23145c-0.10735,0.01016 -0.23928,-0.04904 -0.34961,-0.16011 -0.10882,-0.10955 -0.16646,-0.23986 -0.15601,-0.34548l0.18424 0.18432c0.01059,0.0106 0.02778,0.0106 0.03837,0.00001 0.0106,-0.01059 0.0106,-0.02778 0.00001,-0.03837l-0.22863 -0.22873 0.06305 -0.06305 0.58799 0.58799 -0.06305 0.06305zm0.5963 -0.53715c-0.14706,0.1449 -0.30849,0.28823 -0.49294,0.43765l-0.05077 -0.05077c0.14117,-0.11917 0.35863,-0.32199 0.48368,-0.44694 0.12493,-0.12503 0.32776,-0.34249 0.44692,-0.48366l0.05077 0.05077c-0.14942,0.18446 -0.29275,0.34588 -0.43766,0.49294l0 0zm0.53753 -0.67267l-0.23912 -0.23911c-0.0106,-0.0106 -0.02778,-0.0106 -0.03837,0 -0.0106,0.0106 -0.0106,0.02778 0,0.03837l0.27711 0.27711 -0.06305 0.06305 -0.58799 -0.58799 0.06305 -0.06305 0.21443 0.21434c0.0106,0.01059 0.02778,0.01059 0.03838,-0.00001 0.01059,-0.0106 0.01059,-0.02778 -0.00001,-0.03838l-0.17002 -0.16994c0.10562,-0.01045 0.23593,0.04719 0.34548,0.15601 0.11107,0.11033 0.17027,0.24226 0.16011,0.34961z"/>
 </g>
</svg>
