<?xml version="1.0" encoding="UTF-8"?>
<!DOCTYPE svg PUBLIC "-//W3C//DTD SVG 1.0//EN" "http://www.w3.org/TR/2001/REC-SVG-20010904/DTD/svg10.dtd">
<!-- Creator: CorelDRAW 2019 (64 Bit) -->
<svg xmlns="http://www.w3.org/2000/svg" xml:space="preserve" width="11.134cm" height="13.545cm" version="1.0" style="shape-rendering:geometricPrecision; text-rendering:geometricPrecision; image-rendering:optimizeQuality; fill-rule:evenodd; clip-rule:evenodd"
viewBox="0 0 11.05475 13.44856"
 xmlns:xlink="http://www.w3.org/1999/xlink">
 <defs>
  <style type="text/css">
   <![CDATA[
    .fil3 {fill:#D2D3D5}
    .fil5 {fill:#BDBFC1}
    .fil8 {fill:#BDBFC1}
    .fil1 {fill:black}
    .fil6 {fill:#FBD66E}
    .fil7 {fill:#FC8C93}
    .fil4 {fill:#FDD76F}
    .fil2 {fill:#FDE587}
    .fil0 {fill:#FDE588}
   ]]>
  </style>
 </defs>
 <g id="Camada_x0020_1">
  <metadata id="CorelCorpID_0Corel-Layer"/>
  <path class="fil0" d="M4.6388 8.55945c0.72669,-0.03605 0.66616,-0.13786 0.97397,0.49842 0.77084,1.59345 0.75834,1.50233 -0.02725,1.8716 -0.4039,0.18986 -0.7404,0.37661 -1.20402,0.2515 -0.74469,-0.20096 -0.91442,-0.9673 -1.2894,-1.7557l-1.43091 -3.11401c-0.18383,-0.41615 -0.2645,-0.77522 -0.03109,-1.20208 0.20684,-0.37824 0.4893,-0.49502 0.86264,-0.66058 0.92111,-0.40851 0.78995,-0.50003 1.49021,1.06387 0.24246,0.54148 0.36884,0.56433 -0.0905,1.01997 -0.09642,0.09565 -0.13247,0.10661 -0.0822,0.2271 0.03512,0.08418 0.08248,0.16529 0.12004,0.25023l0.70852 1.54969zm1.18368 -5.62137c0.10139,0.09295 0.07346,0.27509 -0.05181,0.32249 -0.10773,0.04077 -1.71925,0.01753 -1.97438,0.01753 -0.17874,0 -1.33203,0.04394 -1.44031,-0.05129 -0.09873,-0.08685 -0.08168,-0.26051 0.04501,-0.31591 0.14336,-0.06269 1.68753,-0.0268 1.97317,-0.0268 0.18635,0 1.3343,-0.05056 1.44832,0.05397zm-2.97688 -0.94653c0.11167,-0.05581 1.92081,-0.03318 2.29145,-0.03161 0.34821,0.00148 0.37469,0.28751 0.17814,0.37307 -0.09231,0.04017 -1.93186,0.02546 -2.28195,0.02328 -0.31676,-0.00198 -0.36941,-0.27391 -0.18764,-0.36474zm-2.64784 4.40812l0 0.51079c0.27524,0.04309 0.21039,0.27865 0.21014,0.49674l-0.00001 2.0488c0,0.86719 -0.04386,1.8535 0.00219,2.70561l6.73162 -0.00001c0,-0.53421 0,-1.0683 0,-1.60239 0,-0.22104 0.04302,-1.50041 -0.0244,-1.58824 -0.25305,0.02798 -0.48301,0.40069 -0.75584,0.28364 -0.16371,-0.12214 -0.05018,-0.55366 -0.04462,-0.74902 0.00467,-0.16408 -0.2098,-0.39528 -0.26842,-0.59227 -0.1021,-0.34312 -0.05446,-1.30586 -0.05446,-1.71438 0,-1.08078 -0.2133,-2.0994 1.0858,-2.41986 0.00143,-0.00158 0.04912,-0.0623 0.04983,-0.06341 0.03175,-0.04905 0.0121,-1.59957 0.0121,-1.82447 0,-0.5812 0.11566,-1.07024 -0.29103,-1.49736l-0.88006 0.00016c0,1.10749 -0.29014,0.8948 -1.85911,0.8948 -1.51017,0 -1.84831,0.21989 -1.84831,-0.88516 -0.255,-0.03807 -0.73522,-0.00905 -1.01479,-0.00978 -0.30609,-0.0008 -0.52933,0.01313 -0.72067,0.2782 -0.20687,0.28657 -0.11984,1.49679 -0.11984,1.90208l0 3.04694c0,0.5298 0.07719,0.72132 -0.21012,0.77861z"/>
  <path class="fil1" d="M7.11522 12.60173l0.67335 0.00151c-0.13737,0.46717 -0.52213,0.447 -0.93557,0.45221l-5.13177 -0.00061c-0.46574,0 -1.08831,0.11269 -1.2763,-0.44026l6.6703 -0.01285zm-6.11348 -12.60173l0.56188 0 5.66725 0c0.0694,0.00174 0.11479,0.00377 0.13157,0.00613 0.27755,0.03899 0.53908,0.23496 0.69322,0.46251 0.20506,0.30272 0.17934,0.62965 0.17976,0.97597 0.0009,0.77049 -0.00005,1.54103 -0.00005,2.31153 0.41151,-0.00001 0.82302,0.00001 1.23453,-0.00001 0.35226,-0.00001 0.69745,-0.00459 0.9984,0.20988 0.70414,0.50177 0.5776,1.06086 0.5776,1.83893 0,0.40276 0,0.80552 0,1.20827 0,0.37799 0.05077,0.74374 -0.12214,1.08612 -0.14147,0.28012 -0.31944,0.46769 -0.60397,0.60431 -0.14965,0.07185 -0.31593,0.11792 -0.48126,0.12301 -0.26363,0.00811 -0.32136,0.04672 -0.42116,-0.19632 0.06934,-0.11049 0.03598,-0.161 0.19735,-0.20046 0.83584,-0.01221 1.03768,-0.40685 1.03737,-1.18025 -0.00029,-0.72418 0.02397,-1.48846 -0.00065,-2.20754 -0.01004,-0.29324 -0.1289,-0.56138 -0.37807,-0.72381 -0.3143,-0.20489 -0.57428,-0.15672 -0.93481,-0.1567 -0.25815,0.00002 -2.11241,-0.0321 -2.18794,0.02708 -0.35228,-0.01529 -0.66799,0.33031 -0.74003,0.6566 -0.04098,0.18564 -0.04351,2.53376 -0.01616,2.79879 0.02033,0.197 0.09485,0.34307 0.2213,0.48931 0.16764,0.19389 0.0944,0.33176 0.0793,0.58343 0.10252,-0.02323 0.32757,-0.177 0.43186,-0.23729 0.16073,-0.09291 1.07748,-0.05096 1.3186,-0.05139 0.23158,-0.00042 0.44104,-0.064 0.47522,0.21366 -0.03604,0.27879 -0.46709,0.18386 -0.68536,0.18386 0,0.82302 0,1.64605 0,2.46907 0,0.67683 0.15915,1.54711 -0.46623,1.97658 -0.17104,0.11746 -0.33372,0.16214 -0.50261,0.17729l-0.55092 0 -0.00372 -0.00001 -3.65107 0.00001 -1.91423 0c-0.21406,-0.01163 -0.38356,-0.0314 -0.46491,-0.06366 -0.8071,-0.32009 -0.6678,-1.06791 -0.6678,-1.77501l0.00043 -4.28105c-0.00226,-0.22356 -0.05921,-0.35839 0.18345,-0.41836 0.27524,0.04309 0.21039,0.27865 0.21014,0.49674l-0.00001 2.0488c0,0.86719 -0.04386,1.8535 0.00219,2.70561 0.05929,0.08814 0.21899,0.04803 0.44433,0.048l6.9711 -0.00082 0.00033 -3.38667c-0.23483,0 -0.55893,-0.05836 -0.70854,0.14886 -0.25305,0.02798 -0.48301,0.40069 -0.75584,0.28364 -0.16371,-0.12214 -0.05018,-0.55366 -0.04462,-0.74902 0.00467,-0.16408 -0.2098,-0.39528 -0.26842,-0.59227 -0.1021,-0.34312 -0.05446,-1.30586 -0.05446,-1.71438 0,-1.08078 -0.2133,-2.0994 1.0858,-2.41986l0.72641 -0.01214c0.05275,-0.15582 0.01967,-1.8527 0.01967,-2.16467 0,-0.33791 0.05732,-0.67169 -0.13284,-0.95486 -0.18886,-0.28122 -0.52719,-0.25291 -0.84234,-0.25356l-0.88006 0.00016c0,1.10749 -0.29014,0.8948 -1.85911,0.8948 -1.51017,0 -1.84831,0.21989 -1.84831,-0.88516 -0.255,-0.03807 -0.73522,-0.00905 -1.01479,-0.00978 -0.30609,-0.0008 -0.52933,0.01313 -0.72067,0.2782 -0.20687,0.28657 -0.11984,1.49679 -0.11984,1.90208l0 3.04694c0,0.5298 0.07719,0.72132 -0.21012,0.77861 -0.23489,-0.04613 -0.18571,-0.20595 -0.18378,-0.41095l-0.00009 -4.04499c0,-0.64421 -0.14817,-1.44465 0.52398,-1.81375 0.15217,-0.08356 0.30631,-0.11755 0.46387,-0.12999zm3.90545 0.89554c-0.29435,-0.00201 -2.05987,0.03335 -2.18614,-0.02657 -0.10274,-0.11323 -0.06419,-0.31912 -0.06419,-0.47525l2.27403 -0.00021 0.64602 0.00601c0,0.1321 0.0397,0.34571 -0.04156,0.44568 -0.10658,0.09487 -0.47378,0.04983 -0.62816,0.05035z"/>
  <path class="fil2" d="M7.8023 5.52948c0.02147,-0.62693 0.12985,-0.56504 0.72199,-0.56505 0.60607,-0.00001 0.68547,-0.05301 0.71443,0.57262 0.62346,0.01574 0.57046,0.13108 0.57045,0.71443 -0.00001,0.57592 0.06053,0.70586 -0.56567,0.71921 -0.06405,0.51084 0.05905,0.5731 -0.71921,0.57308 -0.74043,-0.00002 -0.67734,-0.03963 -0.72509,-0.5672 -0.50416,-0.06392 -0.5685,0.06748 -0.56851,-0.72509 -0.00001,-0.82603 0.09205,-0.64821 0.57161,-0.72199zm1.11842 3.11227l0.49664 -0.01143c0.06934,-0.11049 0.03598,-0.161 0.19735,-0.20046 0.10442,-0.06604 0.07991,-0.01128 0.17356,-0.10012 0.03117,-0.02957 0.08563,-0.0893 0.1139,-0.12266 0.06817,-0.08042 0.13296,-0.20699 0.16676,-0.30687 0.1092,-0.3227 0.06944,-2.46742 0.05898,-2.85826 -0.0075,-0.27999 -0.09398,-0.49266 -0.26148,-0.71125 -0.12528,-0.16351 -0.14635,-0.13031 -0.34294,-0.12836 -0.43413,0.0043 -2.21625,0.03027 -2.37287,-0.01369 -0.35228,-0.01529 -0.66799,0.33031 -0.74003,0.6566 -0.04098,0.18564 -0.04351,2.53376 -0.01616,2.79879 0.02033,0.197 0.09485,0.34307 0.2213,0.48931 0.16764,0.19389 0.0944,0.33176 0.0793,0.58343 0.10252,-0.02323 0.32757,-0.177 0.43186,-0.23729 0.16073,-0.09291 1.07748,-0.05096 1.3186,-0.05139 0.23158,-0.00042 0.44104,-0.064 0.47522,0.21366z"/>
  <path class="fil1" d="M2.79746 4.76414c0.06702,-0.07268 0.21088,-0.13164 0.3159,-0.16234 0.05953,0.06482 0.64095,1.32877 0.67777,1.46061 -0.39314,0.47421 -0.55822,0.39388 -0.375,0.78068 0.13658,0.28835 0.28035,0.58651 0.40682,0.87915 0.12712,0.29414 0.27293,0.58803 0.40678,0.87922 0.07209,0.15682 0.09601,0.33632 0.27667,0.35748 0.16509,0.01934 0.41716,-0.03749 0.6128,-0.03127l0.6702 1.47328 -0.36444 0.15738c-0.22532,0.19243 -0.73591,0.33099 -1.0278,0.21502 -0.36306,-0.14424 -0.44606,-0.41455 -0.5948,-0.74481 -0.56378,-1.25182 -1.16375,-2.46996 -1.70349,-3.7087 -0.15988,-0.36695 -0.33921,-0.63379 -0.11206,-1.03655 0.12531,-0.22218 0.57766,-0.50613 0.81065,-0.51916zm1.84134 3.79531l-0.70852 -1.54969c-0.03756,-0.08494 -0.08492,-0.16605 -0.12004,-0.25023 -0.05027,-0.1205 -0.01422,-0.13145 0.0822,-0.2271 0.45934,-0.45563 0.33296,-0.47849 0.0905,-1.01997 -0.70026,-1.5639 -0.5691,-1.47239 -1.49021,-1.06387 -0.37333,0.16556 -0.6558,0.28235 -0.86264,0.66058 -0.23342,0.42686 -0.15275,0.78594 0.03109,1.20208l1.43091 3.11401c0.37498,0.78841 0.54471,1.55475 1.2894,1.7557 0.46362,0.12511 0.80011,-0.06164 1.20402,-0.2515 0.7856,-0.36927 0.7981,-0.27816 0.02725,-1.8716 -0.3078,-0.63628 -0.24728,-0.53447 -0.97397,-0.49842z"/>
  <path class="fil3" d="M5.42495 10.55834c0.04652,-0.11885 -0.07081,-0.28498 -0.1568,-0.47064 -0.16049,-0.34655 -0.27967,-0.78368 -0.49826,-0.79837 -0.17486,-0.01174 -0.41223,0.0322 -0.59583,0.03053l-1.26079 -2.75318c0.52343,-0.59254 0.54171,-0.39863 0.34427,-0.8521 -0.06374,-0.14642 -0.3879,-0.88193 -0.46009,-0.95044 -0.23299,0.01303 -0.68534,0.29698 -0.81065,0.51916 -0.22715,0.40276 -0.04783,0.6696 0.11206,1.03655 0.53974,1.23873 1.13971,2.45688 1.70349,3.7087 0.14873,0.33026 0.23174,0.60057 0.5948,0.74481 0.29189,0.11597 0.80248,-0.02259 1.0278,-0.21502z"/>
  <path class="fil1" d="M8.19596 5.35821l0.64582 0c0,0.67976 0.02449,0.55846 0.5737,0.57675l0 0.6379c-0.54795,0.02123 -0.57284,-0.11146 -0.57434,0.57717l-0.64311 0c0,-0.61684 0.04224,-0.57436 -0.5736,-0.57436l0.00105 -0.64312c0.44475,0 0.57255,0.05128 0.57255,-0.2852l-0.00207 -0.28914zm-0.39366 0.17127c-0.47956,0.07378 -0.57162,-0.10403 -0.57161,0.72199 0.00001,0.79257 0.06436,0.66117 0.56851,0.72509 0.04775,0.52758 -0.01534,0.56718 0.72509,0.5672 0.77826,0.00002 0.65516,-0.06224 0.71921,-0.57308 0.62619,-0.01335 0.56566,-0.14329 0.56567,-0.71921 0.00001,-0.58335 0.05301,-0.69869 -0.57045,-0.71443 -0.02896,-0.62563 -0.10836,-0.57263 -0.71443,-0.57262 -0.59215,0.00001 -0.70053,-0.06188 -0.72199,0.56505z"/>
  <path class="fil3" d="M6.853 13.05545c0.1315,-0.12623 0.2213,-0.26211 0.26222,-0.45372l-6.6703 0.01285c0.18799,0.55296 0.81056,0.44026 1.2763,0.44026l5.13177 0.00061z"/>
  <path class="fil4" d="M7.1173 8.97098c0.06742,0.08782 0.0244,1.3672 0.0244,1.58824 0,0.53409 0,1.06818 0,1.60239l-6.73162 0.00001c0.05929,0.08814 0.21899,0.04803 0.44433,0.048l6.9711 -0.00082 0.00033 -3.38667c-0.23483,0 -0.55893,-0.05836 -0.70854,0.14886z"/>
  <path class="fil5" d="M2.79746 4.76414c0.07219,0.06851 0.39635,0.80402 0.46009,0.95044 0.19743,0.45347 0.17916,0.25956 -0.34427,0.8521l1.26079 2.75318c0.1836,0.00167 0.42097,-0.04227 0.59583,-0.03053 0.21859,0.01468 0.33777,0.45182 0.49826,0.79837 0.08598,0.18566 0.20331,0.35179 0.1568,0.47064l0.36444 -0.15738 -0.6702 -1.47328c-0.19564,-0.00623 -0.44771,0.05061 -0.6128,0.03127 -0.18066,-0.02116 -0.20457,-0.20066 -0.27667,-0.35748 -0.13385,-0.29118 -0.27967,-0.58508 -0.40678,-0.87922 -0.12647,-0.29264 -0.27024,-0.5908 -0.40682,-0.87915 -0.18322,-0.38681 -0.01814,-0.30647 0.375,-0.78068 -0.03683,-0.13184 -0.61824,-1.39579 -0.67777,-1.46061 -0.10502,0.0307 -0.24888,0.08966 -0.3159,0.16234z"/>
  <path class="fil4" d="M7.07976 3.77908l0.72641 -0.01214c0.05275,-0.15582 0.01967,-1.8527 0.01967,-2.16467 0,-0.33791 0.05732,-0.67169 -0.13284,-0.95486 -0.18886,-0.28122 -0.52719,-0.25291 -0.84234,-0.25356 0.40669,0.42712 0.29103,0.91615 0.29103,1.49736 0,0.2249 0.01965,1.77542 -0.0121,1.82447 -0.00071,0.0011 -0.0484,0.06183 -0.04983,0.06341z"/>
  <path class="fil6" d="M9.61471 8.42986c0.83584,-0.01221 1.03768,-0.40685 1.03737,-1.18025 -0.00029,-0.72418 0.02397,-1.48846 -0.00065,-2.20754 -0.01004,-0.29324 -0.1289,-0.56138 -0.37807,-0.72381 -0.3143,-0.20489 -0.57428,-0.15672 -0.93481,-0.1567 -0.25815,0.00002 -2.11241,-0.0321 -2.18794,0.02708 0.15662,0.04396 1.93874,0.01799 2.37287,0.01369 0.19659,-0.00195 0.21766,-0.03515 0.34294,0.12836 0.1675,0.21859 0.25398,0.43126 0.26148,0.71125 0.01046,0.39084 0.05022,2.53556 -0.05898,2.85826 -0.03381,0.09988 -0.09859,0.22645 -0.16676,0.30687 -0.02828,0.03336 -0.08274,0.09309 -0.1139,0.12266 -0.09365,0.08884 -0.06913,0.03409 -0.17356,0.10012z"/>
  <path class="fil7" d="M8.19803 5.64735c0,0.33648 -0.12779,0.2852 -0.57255,0.2852l-0.00105 0.64312c0.61584,0 0.5736,-0.04248 0.5736,0.57436l0.64311 0c0.0015,-0.68863 0.02639,-0.55594 0.57434,-0.57717l0 -0.6379c-0.5492,-0.01829 -0.5737,0.10301 -0.5737,-0.57675l-0.64582 0 0.00207 0.28914z"/>
  <path class="fil1" d="M2.40099 2.91091c-0.12669,0.05539 -0.14374,0.22906 -0.04501,0.31591 0.10827,0.09523 1.26157,0.05129 1.44031,0.05129 0.25513,0 1.86665,0.02323 1.97438,-0.01753 0.12527,-0.0474 0.1532,-0.22953 0.05181,-0.32249 -0.11402,-0.10453 -1.26196,-0.05397 -1.44832,-0.05397 -0.28563,0 -1.8298,-0.03589 -1.97317,0.0268z"/>
  <path class="fil3" d="M4.90718 0.89554l0.0237 -0.50203 -2.27403 0.00021c0,0.15613 -0.03855,0.36202 0.06419,0.47525 0.12626,0.05992 1.89179,0.02456 2.18614,0.02657z"/>
  <path class="fil1" d="M2.84559 1.99156c-0.18177,0.09083 -0.12911,0.36276 0.18764,0.36474 0.35009,0.00217 2.18964,0.01689 2.28195,-0.02328 0.19655,-0.08556 0.17007,-0.37159 -0.17814,-0.37307 -0.37064,-0.00157 -2.17978,-0.0242 -2.29145,0.03161z"/>
  <path class="fil5" d="M4.90718 0.89554c0.15437,-0.00052 0.52158,0.04452 0.62816,-0.05035 0.08126,-0.09996 0.04156,-0.31357 0.04156,-0.44568l-0.64602 -0.00601 -0.0237 0.50203z"/>
  <path class="fil8" d="M6.853 13.05545c0.41345,-0.00521 0.79821,0.01496 0.93557,-0.45221l-0.67335 -0.00151c-0.04092,0.19161 -0.13072,0.32749 -0.26222,0.45372z"/>
 </g>
</svg>
