<?xml version="1.0" encoding="UTF-8"?>
<!DOCTYPE svg PUBLIC "-//W3C//DTD SVG 1.0//EN" "http://www.w3.org/TR/2001/REC-SVG-20010904/DTD/svg10.dtd">
<!-- Creator: CorelDRAW 2019 (64 Bit) -->
<svg xmlns="http://www.w3.org/2000/svg" xml:space="preserve" width="11.542cm" height="13.545cm" version="1.0" style="shape-rendering:geometricPrecision; text-rendering:geometricPrecision; image-rendering:optimizeQuality; fill-rule:evenodd; clip-rule:evenodd"
viewBox="0 0 7.58186 8.89761"
 xmlns:xlink="http://www.w3.org/1999/xlink">
 <defs>
  <style type="text/css">
   <![CDATA[
    .fil0 {fill:black}
    .fil11 {fill:#6D633B}
    .fil12 {fill:#705F31}
    .fil7 {fill:#86BEEC}
    .fil10 {fill:#8A7D4A}
    .fil9 {fill:#937D41}
    .fil8 {fill:#968851}
    .fil4 {fill:#A0D3FE}
    .fil13 {fill:#C8CED5}
    .fil5 {fill:#EEF5FE}
    .fil3 {fill:#FCD76F}
    .fil1 {fill:#FDE487}
    .fil2 {fill:#FDEDE5}
    .fil6 {fill:#FEDFCE}
   ]]>
  </style>
 </defs>
 <g id="Camada_x0020_1">
  <metadata id="CorelCorpID_0Corel-Layer"/>
  <g id="_1920733776960">
   <path class="fil0" d="M2.00787 2.83509c-0.00674,0.61138 -0.03612,1.06942 0.27752,1.50486 0.1293,0.17953 0.25923,0.30751 0.45673,0.4296 0.1693,0.10466 0.44701,0.22422 0.69802,0.21268l0.22449 0.00596c0.01178,0.10057 0.00503,0.19925 0.00503,0.29476l-0.01759 0.28176c-0.19112,-0.01914 -0.35519,-0.05615 -0.51129,-0.13345 -0.09168,-0.0454 -0.14354,-0.1217 -0.19139,-0.14229 -0.10633,-0.04576 -0.19795,0.02848 -0.1853,0.13101 0.01482,0.12016 0.23881,0.24482 0.37123,0.2948 0.25638,0.09679 0.38435,0.08381 0.46675,0.10669 0.07082,0.01967 0.02553,-0.01362 0.06038,0.03497l0 2.78055 -2.13751 0c0.00116,-0.1738 0.00116,-0.3476 0.00116,-0.5214 0,-0.14034 0.04952,-0.3978 -0.11685,-0.41389 -0.19145,-0.01852 -0.14374,0.23311 -0.14373,0.39651 0.00001,0.17709 0,0.35419 0,0.53128l-1.00094 0.00784c0,-0.39946 -0.03219,-1.53127 0.04697,-1.84748 0.17734,-0.70839 0.86254,-1.16121 1.48337,-1.38475 0.09117,-0.03283 0.29621,-0.07394 0.33988,-0.12955 0.13479,-0.17166 -0.26349,-0.27638 -0.51102,-0.8823 -0.07146,-0.17492 -0.18192,-0.59525 -0.15283,-0.8027 -0.05193,-0.06256 -0.04286,-0.66097 -0.01798,-0.76907 0.07056,-0.00751 0.48711,-0.02502 0.5549,0.01361zm1.65839 -2.83509l0.03267 0c0.52678,0.00257 0.80636,0.05111 1.18389,0.21334 0.3627,0.15585 0.67,0.38198 0.92079,0.67799 0.02695,0.03181 0.05143,0.0684 0.07458,0.0992 0.05294,0.07046 0.09281,0.12871 0.14004,0.20753 0.0888,0.1482 0.15691,0.29103 0.21836,0.47676 0.13751,0.41559 0.16293,0.69954 0.16293,1.2447 0,0.77326 0.00818,1.18096 -0.30101,1.80175 -0.11387,0.22863 -0.20567,0.27957 -0.28985,0.40528 0.04854,0.02329 0.12679,0.04708 0.1763,0.06699 0.05726,0.02303 0.10358,0.03888 0.15991,0.066 0.10991,0.05293 0.21166,0.10347 0.30778,0.16143l0.28421 0.185c0.17159,0.11881 0.18387,0.13781 0.14925,0.28481 -0.0873,0.03589 -0.13417,0.06658 -0.22352,-0.00237 -0.17945,-0.13848 -0.292,-0.21889 -0.50556,-0.32809 -0.42827,-0.21899 -0.77421,-0.19589 -0.72853,-0.39408 0.01025,-0.0445 0.21621,-0.24896 0.26475,-0.31125 0.24703,-0.31691 0.4707,-0.89556 0.42081,-1.26638 0.04096,-0.0224 0.03742,-0.6832 0.01829,-0.76686l-0.48122 -0.00715c-0.00049,0.00003 -0.02743,0.00137 -0.03348,0.00248 -0.02802,0.00514 -0.02909,0.00984 -0.0408,0.01609 0.0177,0.60736 0.03282,1.07735 -0.27661,1.50675 -0.12643,0.17545 -0.26774,0.31712 -0.46765,0.4361 -0.16389,0.09755 -0.45347,0.21694 -0.68712,0.2062l-0.22424 0.01206 -0.00555 0.44524c-0.00085,0.08614 -0.00794,0.08041 0.01786,0.12518 0.57487,-0.05758 0.6299,-0.25396 0.71628,-0.2811 0.19199,-0.06032 0.33452,0.23463 -0.21239,0.4357 -0.0772,0.02838 -0.16775,0.05341 -0.25721,0.07196 -0.11501,0.02386 -0.24105,0.01532 -0.25708,0.06517l-0.00001 2.78055 2.06444 0c0,-0.17959 0.00001,-0.35918 0,-0.53877 -0.00001,-0.14922 -0.04472,-0.39745 0.13366,-0.39728 0.1758,0.00017 0.12691,0.26238 0.12691,0.41465 0,0.17211 0,0.34421 -0.00001,0.52074l0.74736 0.00074 0.32551 -0.0001c0,-0.47476 0.00288,-0.9504 0.00005,-1.42505 -0.00502,-0.84136 -0.39518,-0.79767 -0.22605,-1.07743 0.16267,-0.07899 0.23236,0.09929 0.28355,0.20267 0.06115,0.12351 0.10667,0.21001 0.14372,0.36025 0.04125,0.16728 0.05945,0.25654 0.05898,0.46236l0.00053 1.52984c0.00193,0.15884 -0.02921,0.19928 -0.11643,0.20799l-0.19692 0 -6.65583 0 -0.49815 0c-0.0784,-0.01706 -0.11136,-0.06265 -0.11132,-0.17255 0.0001,-0.29173 -0.01197,-1.631 0.01066,-1.78175 0.05865,-0.39065 0.22706,-0.7611 0.49885,-1.03043 0.1958,-0.19403 0.31645,-0.31454 0.56356,-0.46175 0.39196,-0.23351 0.43597,-0.19753 0.70074,-0.32457 -0.03727,-0.05566 -0.10221,-0.11862 -0.1492,-0.18099 -0.1234,-0.16373 -0.25746,-0.4284 -0.31291,-0.62551 -0.16177,-0.57525 -0.17809,-1.73647 -0.058,-2.32033 0.02271,-0.1104 0.20758,-0.93967 0.45059,-0.75775 0.10994,0.08617 0.05028,0.16068 -0.00346,0.26715 -0.04745,0.09402 -0.08153,0.18396 -0.11627,0.28338 -0.05542,0.1586 -0.1291,0.48191 -0.12149,0.6609 -0.02335,0.04341 -0.02224,0.05528 -0.01247,0.11157 0.085,0.01728 0.29954,0.00746 0.41012,0.00847 0.06091,0.00056 0.09553,0.00947 0.14382,-0.01772 -0.0088,-0.52552 0.03977,-0.43311 0.28262,-0.59588 -0.05233,-0.07714 -0.13197,-0.14051 -0.11186,-0.27894 0.07017,-0.05884 0.12762,-0.11023 0.21544,-0.02132 0.04246,0.04299 0.12358,0.15892 0.14256,0.20862l0.42648 -0.08492c-0.01,-0.13738 -0.11032,-0.3611 0.07118,-0.38458 0.16805,-0.02173 0.16656,0.2191 0.19366,0.34804 0.02566,0.00241 0.40779,-0.00072 0.42909,-0.03812 0.0426,-0.07477 -0.07525,-0.37187 0.13592,-0.3717 0.19729,0.00016 0.10652,0.28216 0.13187,0.36062 0.01619,0.05012 0.36724,0.055 0.43366,0.04967 0.02746,-0.12567 0.02237,-0.35361 0.1802,-0.34957 0.1989,0.00509 0.09357,0.25014 0.08369,0.39069l0.43939 0.08854c0.04261,-0.0451 0.06987,-0.08513 0.10619,-0.1369 0.13498,-0.19242 0.29814,-0.0592 0.25666,0.07856 -0.01322,0.04391 -0.07572,0.11157 -0.10075,0.16213 0.26508,0.09894 0.26211,0.24995 0.25444,0.57539 0.00403,0.00229 0.00977,0.0015 0.01216,0.00679l0.11397 0.01121c0.11368,-0.00121 0.34608,0.00736 0.42697,-0.00972l-0.0142 -0.12088c0.01291,-0.47604 -0.27796,-1.07647 -0.49173,-1.33911 -0.14336,-0.17615 -0.28139,-0.31162 -0.47412,-0.44656 -0.1488,-0.10417 -0.42701,-0.24782 -0.6458,-0.29426 -0.10811,-0.06687 -0.5743,-0.10343 -0.72997,-0.10244 -0.26409,0.00168 -0.51524,0.03977 -0.753,0.11583 -0.3535,0.11309 -0.57127,0.24758 -0.82917,0.4734 -0.07802,0.06831 -0.1326,0.16455 -0.27728,0.09604 -0.07895,-0.08213 -0.04341,-0.17346 0.02995,-0.23866l0.18827 -0.1593c0.14766,-0.11006 0.25665,-0.18653 0.42475,-0.27038 0.27834,-0.13885 0.68951,-0.27483 1.10733,-0.27803zm1.43368 3.55915l0.21849 -0.17035c0.001,0.30696 -0.06935,0.55263 -0.20563,0.76357 -0.10002,0.15481 -0.32322,0.39638 -0.53955,0.4611 -0.20341,0.12781 -0.53641,0.11923 -0.81521,0.11926 -0.33069,0.00003 -0.53038,-0.00101 -0.80253,-0.14174 -0.20427,-0.10564 -0.37584,-0.26766 -0.48973,-0.449 -0.13535,-0.21551 -0.19934,-0.44455 -0.19866,-0.75354 0.06464,0.03083 0.04452,0.04482 0.1441,0.1135 0.05219,0.036 0.10041,0.06981 0.16197,0.09786 0.12315,0.05614 0.27938,0.09611 0.43697,0.09922 0.15708,0.00309 0.33308,-0.01509 0.46303,-0.07351 0.15601,-0.07014 0.20186,-0.19335 0.30223,-0.23787 0.12158,-0.01984 0.14972,0.24902 0.58309,0.30085 0.33887,0.04054 0.47934,-0.02073 0.74143,-0.12938zm-0.801 -0.159c-0.22987,0.01055 -0.29712,-0.4108 -0.65107,-0.24333 -0.11163,0.05281 -0.15234,0.15661 -0.25147,0.21741 -0.20975,0.12863 -0.77479,0.10396 -1.01682,-0.27507 -0.13299,-0.20826 -0.12951,-0.54317 -0.10865,-0.81762 0.08765,-0.10162 0.43788,-0.18498 0.61324,-0.21722 0.24878,-0.04575 0.49575,-0.0675 0.75222,-0.07416 0.31691,-0.00822 1.24939,0.03564 1.45986,0.1866 0.07986,0.02089 0.1752,0.04319 0.20984,0.10415 0.03366,0.07173 0.01736,0.43939 0.00292,0.53757 -0.02387,0.16233 -0.09859,0.28964 -0.17623,0.3813 -0.06161,0.07273 -0.21452,0.16824 -0.3485,0.20694 -0.12231,0.03533 -0.38525,0.07143 -0.48535,-0.00658z"/>
   <path class="fil1" d="M1.47095 3.59055c-0.02909,0.20745 0.08138,0.62777 0.15283,0.8027 0.24753,0.60592 0.64581,0.71064 0.51102,0.8823 -0.04367,0.05561 -0.24871,0.09672 -0.33988,0.12955 -0.62083,0.22354 -1.30602,0.67636 -1.48337,1.38475 -0.07916,0.3162 -0.04697,1.44802 -0.04697,1.84748l1.00094 -0.00784c0,-0.17709 0.00001,-0.35419 0,-0.53128 -0.00001,-0.1634 -0.04772,-0.41504 0.14373,-0.39651 0.16637,0.01609 0.11685,0.27355 0.11685,0.41389 0,0.1738 0,0.3476 -0.00116,0.5214l2.13751 0 0 -2.78055c-0.03485,-0.04859 0.01044,-0.0153 -0.06038,-0.03497 -0.0824,-0.02288 -0.21037,-0.0099 -0.46675,-0.10669 -0.13242,-0.04998 -0.35641,-0.17464 -0.37123,-0.2948 -0.01265,-0.10253 0.07897,-0.17677 0.1853,-0.13101 0.04785,0.02059 0.09971,0.09689 0.19139,0.14229 0.1561,0.0773 0.32016,0.11431 0.51129,0.13345l0 -0.56461c-0.03938,0 -0.19809,0.01617 -0.21193,-0.01787 -0.25101,0.01154 -0.52871,-0.10802 -0.69802,-0.21268 -0.1975,-0.1221 -0.32743,-0.25007 -0.45673,-0.4296 -0.31364,-0.43544 -0.28426,-0.89348 -0.27752,-1.50486l-0.54892 0c0,0.12662 -0.00004,0.25325 -0.00005,0.37987 -0.00001,0.11107 0.02396,0.27971 0.01205,0.37559z"/>
   <path class="fil1" d="M5.01362 6.07724c0.47922,-0.06134 0.8544,0.29473 0.90977,0.70775 0.06436,0.48008 -0.29889,0.8736 -0.71284,0.92443 -0.48876,0.06002 -0.86684,-0.29554 -0.91959,-0.71636 -0.06163,-0.4917 0.29962,-0.86167 0.72266,-0.91582zm-0.86816 -1.095c-0.03754,0.03367 -0.1548,0.01787 -0.21193,0.01787l0 0.56461c0.57487,-0.05758 0.6299,-0.25396 0.71628,-0.2811 0.19199,-0.06032 0.33452,0.23463 -0.21239,0.4357 -0.0772,0.02838 -0.16775,0.05341 -0.25721,0.07196 -0.11501,0.02386 -0.24105,0.01532 -0.25708,0.06517l-0.00001 2.78055 2.06444 0c0,-0.17959 0.00001,-0.35918 0,-0.53877 -0.00001,-0.14922 -0.04472,-0.39745 0.13366,-0.39728 0.1758,0.00017 0.12691,0.26238 0.12691,0.41465 0,0.17211 0,0.34421 -0.00001,0.52074l0.74736 0.00074c0,-0.3534 0,-0.7068 0,-1.0602 0,-0.55188 -0.01902,-0.81943 -0.35196,-1.2342 -0.14912,-0.18576 -0.36542,-0.37578 -0.57493,-0.50325 -0.11107,-0.06757 -0.21503,-0.12589 -0.34827,-0.19001 -0.3867,-0.18608 -0.71171,-0.15047 -0.66562,-0.37374 0.01713,-0.08299 0.15408,-0.25002 0.20163,-0.31888 0.51987,-0.75279 0.55036,-1.14636 0.55036,-2.12268l-0.22987 -0.00093c0.0177,0.60736 0.03282,1.07735 -0.27661,1.50675 -0.12643,0.17545 -0.26774,0.31712 -0.46765,0.4361 -0.16389,0.09755 -0.45347,0.21694 -0.68712,0.2062z"/>
   <path class="fil1" d="M1.91596 0.94637c-0.04504,0.04732 -0.06575,0.0737 -0.10679,0.12855 -0.04133,0.05524 -0.08529,0.09126 -0.10175,0.16706 0.10994,0.08617 0.05028,0.16068 -0.00346,0.26715 -0.04745,0.09402 -0.08153,0.18396 -0.11627,0.28338 -0.05542,0.1586 -0.1291,0.48191 -0.12149,0.6609l-0.0043 0.10234 0.54577 -0.00003c-0.0088,-0.52552 0.03977,-0.43311 0.28262,-0.59588 -0.05233,-0.07714 -0.13197,-0.14051 -0.11186,-0.27894 0.07017,-0.05884 0.12762,-0.11023 0.21544,-0.02132 0.04246,0.04299 0.12358,0.15892 0.14256,0.20862l0.42648 -0.08492c-0.01,-0.13738 -0.11032,-0.3611 0.07118,-0.38458 0.16805,-0.02173 0.16656,0.2191 0.19366,0.34804 0.02566,0.00241 0.40779,-0.00072 0.42909,-0.03812 0.0426,-0.07477 -0.07525,-0.37187 0.13592,-0.3717 0.19729,0.00016 0.10652,0.28216 0.13187,0.36062 0.01619,0.05012 0.36724,0.055 0.43366,0.04967 0.02746,-0.12567 0.02237,-0.35361 0.1802,-0.34957 0.1989,0.00509 0.09357,0.25014 0.08369,0.39069l0.43939 0.08854c0.04261,-0.0451 0.06987,-0.08513 0.10619,-0.1369 0.13498,-0.19242 0.29814,-0.0592 0.25666,0.07856 -0.01322,0.04391 -0.07572,0.11157 -0.10075,0.16213 0.26508,0.09894 0.26211,0.24995 0.25444,0.57539l0.22632 -0.00064c-0.01307,-0.5044 -0.16334,-1.00454 -0.38602,-1.34837 -0.18821,-0.29059 -0.37232,-0.47776 -0.63884,-0.6647 -0.06607,-0.04634 -0.22344,-0.12405 -0.27419,-0.17882 -0.10811,-0.06687 -0.5743,-0.10343 -0.72997,-0.10244 -0.26409,0.00168 -0.51524,0.03977 -0.753,0.11583 -0.3535,0.11309 -0.57127,0.24758 -0.82917,0.4734 -0.07802,0.06831 -0.1326,0.16455 -0.27728,0.09604z"/>
   <path class="fil2" d="M4.42957 2.74695c0.17752,-0.07115 0.23126,0.23332 0.08416,0.28747 -0.09469,0.03486 -0.16249,-0.02881 -0.1754,-0.10318 -0.02377,-0.13688 0.03395,-0.16133 0.09124,-0.18429zm-1.34466 -0.00498c0.18086,-0.05794 0.21268,0.23317 0.08879,0.28977 -0.18414,0.08412 -0.27681,-0.22953 -0.08879,-0.28977zm1.51031 -0.43657c0.32068,-0.04553 0.22817,0.18263 0.18859,0.21512 -0.05073,0.04164 -0.31409,0.06382 -0.40825,0.07766 -0.08653,0.01272 -0.16096,0.0187 -0.20325,-0.04221 -0.16556,-0.23845 0.35323,-0.24067 0.42292,-0.25057zm-1.76144 -0.00089c0.06915,-0.03259 0.34729,0.02536 0.44031,0.03888 0.25313,0.03679 0.1611,0.23163 0.07756,0.25728 -0.06387,0.01961 -0.36481,-0.03142 -0.44627,-0.04497 -0.21651,-0.036 -0.15957,-0.20973 -0.07159,-0.25119zm1.46516 1.09564c0.30062,0.02235 0.54813,-0.1881 0.66377,-0.3536 0.06512,-0.0932 0.12046,-0.23048 0.13954,-0.365 0.01617,-0.11395 0.03257,-0.40119 -0.006,-0.50479 -0.21046,-0.15096 -1.14294,-0.19482 -1.45986,-0.1866 -0.25648,0.00665 -0.50344,0.02841 -0.75222,0.07416 -0.17536,0.03224 -0.52559,0.11561 -0.61324,0.21722 -0.02086,0.27444 -0.02434,0.60936 0.10865,0.81762 0.24203,0.37903 0.80707,0.40371 1.01682,0.27507 0.09913,-0.0608 0.13984,-0.16459 0.25147,-0.21741 0.35395,-0.16748 0.4212,0.25388 0.65107,0.24333z"/>
   <path class="fil3" d="M6.9955 8.63707l0.32551 -0.0001c0,-0.47476 0.00288,-0.9504 0.00005,-1.42505 -0.00502,-0.84136 -0.39518,-0.79767 -0.22605,-1.07743 -0.02704,-0.03959 -0.06449,-0.08977 -0.09993,-0.12635 -0.04271,-0.04408 -0.07675,-0.06853 -0.10897,-0.11735 -0.0873,0.03589 -0.13417,0.06658 -0.22352,-0.00237 -0.17945,-0.13848 -0.292,-0.21889 -0.50556,-0.32809 -0.42827,-0.21899 -0.77421,-0.19589 -0.72853,-0.39408 0.01025,-0.0445 0.21621,-0.24896 0.26475,-0.31125 0.24703,-0.31691 0.4707,-0.89556 0.42081,-1.26638 -0.01236,-0.09254 0.0118,-0.26474 0.01179,-0.37367 -0.00001,-0.12681 -0.00005,-0.25361 -0.00005,-0.38038l-0.31908 -0.00045c0,0.97632 -0.03049,1.36989 -0.55036,2.12268 -0.04755,0.06886 -0.1845,0.23588 -0.20163,0.31888 -0.04609,0.22327 0.27892,0.18766 0.66562,0.37374 0.13323,0.06411 0.2372,0.12244 0.34827,0.19001 0.2095,0.12747 0.42581,0.31749 0.57493,0.50325 0.33295,0.41477 0.35196,0.68232 0.35196,1.2342 0,0.3534 0,0.7068 0,1.0602z"/>
   <path class="fil4" d="M3.5823 4.26816c0.04836,-0.0167 0.35305,-0.0183 0.41331,-0.00361 0.12373,0.03016 0.1237,0.20836 0.01509,0.24499 -0.05031,0.01697 -0.3638,0.01704 -0.42125,0.00298 -0.12179,-0.0298 -0.13214,-0.20119 -0.00715,-0.24436zm-0.00205 -0.43548c0.04969,-0.01697 0.35457,-0.01856 0.4162,-0.00363 0.12392,0.02999 0.12208,0.20811 0.01326,0.24499 -0.04814,0.01632 -0.36544,0.01714 -0.4206,0.00395 -0.12011,-0.02871 -0.13083,-0.20364 -0.00887,-0.24531zm0.99301 0.7808c0.03362,-0.07571 0.08452,-0.0592 0.19778,-0.21184 0.16889,-0.22762 0.35033,-0.52077 0.32891,-0.84249 -0.26209,0.10864 -0.40256,0.16991 -0.74143,0.12938 -0.43337,-0.05184 -0.46151,-0.32069 -0.58309,-0.30085 -0.10037,0.04452 -0.14622,0.16773 -0.30223,0.23787 -0.12995,0.05842 -0.30594,0.0766 -0.46303,0.07351 -0.15759,-0.00311 -0.31382,-0.04309 -0.43697,-0.09922 -0.06156,-0.02806 -0.10978,-0.06186 -0.16197,-0.09786 -0.09959,-0.06868 -0.07946,-0.08267 -0.1441,-0.1135 -0.00068,0.30899 0.06331,0.53803 0.19866,0.75354 0.11389,0.18134 0.28545,0.34337 0.48973,0.449 0.27215,0.14073 0.47185,0.14177 0.80253,0.14174 0.27881,-0.00003 0.61181,0.00855 0.81521,-0.11926z"/>
   <path class="fil0" d="M5.019 6.34049c0.32598,-0.06248 0.59094,0.18219 0.64037,0.44551 0.14011,0.74628 -0.97431,0.93061 -1.10471,0.20595 -0.06397,-0.3555 0.17867,-0.59671 0.46434,-0.65146zm-0.00539 -0.26325c-0.42305,0.05415 -0.78429,0.42412 -0.72266,0.91582 0.05275,0.42082 0.43083,0.77638 0.91959,0.71636 0.41395,-0.05084 0.7772,-0.44436 0.71284,-0.92443 -0.05537,-0.41302 -0.43055,-0.76909 -0.90977,-0.70775z"/>
   <path class="fil5" d="M5.35361 7.02036c-0.04082,0.02212 -0.04465,0.01405 -0.10221,0.01412 -0.00011,0.0634 0.00899,0.063 -0.01638,0.10734 -0.01584,0.07666 -0.0784,0.14568 -0.17603,0.10768 -0.08766,-0.03413 -0.07869,-0.12796 -0.08433,-0.22648 -0.15123,0 -0.12739,0.01203 -0.22457,-0.06646 -0.02804,-0.19233 0.05757,-0.19407 0.22723,-0.19407 0,-0.17014 0.00017,-0.25503 0.19421,-0.22709 0.07864,0.09752 0.06632,0.07173 0.06632,0.22401 0.1056,0.00707 0.18942,-0.00091 0.22553,0.08626 0.04102,0.09899 -0.03115,0.15995 -0.10976,0.17468zm-0.3346 -0.67987c-0.28567,0.05475 -0.52831,0.29596 -0.46434,0.65146 0.1304,0.72466 1.24482,0.54033 1.10471,-0.20595 -0.04943,-0.26332 -0.31438,-0.508 -0.64037,-0.44551z"/>
   <path class="fil3" d="M5.80445 2.55543l0.31855 -0.00004 -0.00596 -0.11192c0.01291,-0.47604 -0.27796,-1.07647 -0.49173,-1.33911 -0.14336,-0.17615 -0.28139,-0.31162 -0.47412,-0.44656 -0.1488,-0.10417 -0.42701,-0.24782 -0.6458,-0.29426 0.05075,0.05477 0.20812,0.13248 0.27419,0.17882 0.26652,0.18694 0.45064,0.37411 0.63884,0.6647 0.22269,0.34383 0.37296,0.84397 0.38602,1.34837z"/>
   <path class="fil6" d="M4.29894 3.40015c0.1001,0.07801 0.36304,0.04191 0.48535,0.00658 0.13399,-0.0387 0.28689,-0.13421 0.3485,-0.20694 0.07764,-0.09166 0.15235,-0.21897 0.17623,-0.3813 0.01443,-0.09818 0.03074,-0.46584 -0.00292,-0.53757 -0.03464,-0.06096 -0.12999,-0.08326 -0.20984,-0.10415 0.03857,0.1036 0.02216,0.39084 0.006,0.50479 -0.01908,0.13451 -0.07441,0.2718 -0.13954,0.365 -0.11564,0.1655 -0.36315,0.37595 -0.66377,0.3536z"/>
   <path class="fil0" d="M5.23501 7.14182l0.00238 -0.12003 0.11621 -0.00143c0.07861,-0.01473 0.15078,-0.07569 0.10976,-0.17468 -0.03611,-0.08716 -0.11994,-0.07919 -0.22553,-0.08626 0,-0.15228 0.01232,-0.12649 -0.06632,-0.22401 -0.19404,-0.02794 -0.19421,0.05695 -0.19421,0.22709 -0.16966,0 -0.25527,0.00174 -0.22723,0.19407 0.09718,0.0785 0.07334,0.06646 0.22457,0.06646 0.00564,0.09852 -0.00333,0.19235 0.08433,0.22648 0.09763,0.038 0.16018,-0.03102 0.17603,-0.10768z"/>
   <path class="fil7" d="M5.09994 3.55915c0.02142,0.32171 -0.16001,0.61487 -0.32891,0.84249 -0.11326,0.15264 -0.16416,0.13613 -0.19778,0.21184 0.21632,-0.06472 0.43953,-0.30629 0.53955,-0.4611 0.13628,-0.21094 0.20663,-0.45661 0.20563,-0.76357l-0.21849 0.17035z"/>
   <path class="fil0" d="M2.83378 2.30451c-0.08798,0.04146 -0.14491,0.21519 0.07159,0.25119 0.08146,0.01355 0.3824,0.06458 0.44627,0.04497 0.08354,-0.02565 0.17557,-0.22049 -0.07756,-0.25728 -0.09302,-0.01353 -0.37116,-0.07147 -0.44031,-0.03888z"/>
   <path class="fil0" d="M4.59522 2.3054c-0.06968,0.00989 -0.58847,0.01211 -0.42292,0.25057 0.04229,0.06091 0.11672,0.05494 0.20325,0.04221 0.09417,-0.01384 0.35753,-0.03602 0.40825,-0.07766 0.03958,-0.03249 0.13209,-0.26065 -0.18859,-0.21512z"/>
   <path class="fil0" d="M3.58025 3.83268c-0.12196,0.04167 -0.11124,0.2166 0.00887,0.24531 0.05516,0.01319 0.37246,0.01236 0.4206,-0.00395 0.10882,-0.03688 0.11066,-0.215 -0.01326,-0.24499 -0.06163,-0.01492 -0.36651,-0.01334 -0.4162,0.00363z"/>
   <path class="fil0" d="M3.5823 4.26816c-0.12499,0.04317 -0.11464,0.21456 0.00715,0.24436 0.05745,0.01406 0.37094,0.01399 0.42125,-0.00298 0.10861,-0.03663 0.10864,-0.21482 -0.01509,-0.24499 -0.06026,-0.01469 -0.36495,-0.0131 -0.41331,0.00361z"/>
   <path class="fil0" d="M3.08492 2.74197c-0.18802,0.06024 -0.09535,0.37389 0.08879,0.28977 0.12389,-0.0566 0.09208,-0.34771 -0.08879,-0.28977z"/>
   <path class="fil0" d="M4.42957 2.74695c-0.05729,0.02297 -0.11502,0.04741 -0.09124,0.18429 0.01291,0.07437 0.08071,0.13804 0.1754,0.10318 0.1471,-0.05415 0.09336,-0.35863 -0.08416,-0.28747z"/>
   <path class="fil8" d="M1.47095 3.59055c0.0119,-0.09588 -0.01206,-0.26452 -0.01205,-0.37559 0.00001,-0.12662 0.00005,-0.25325 0.00005,-0.37987l0.54892 0c-0.06778,-0.03863 -0.48434,-0.02113 -0.5549,-0.01361 -0.02488,0.10811 -0.03395,0.70651 0.01798,0.76907z"/>
   <path class="fil9" d="M5.80672 2.83412l0.31908 0.00045c0,0.12677 0.00004,0.25357 0.00005,0.38038 0.00001,0.10893 -0.02415,0.28112 -0.01179,0.37367 0.04096,-0.0224 0.03742,-0.6832 0.01829,-0.76686l-0.48122 -0.00715c-0.00049,0.00003 -0.02743,0.00137 -0.03348,0.00248 -0.02802,0.00514 -0.02909,0.00984 -0.0408,0.01609l0.22987 0.00093z"/>
   <path class="fil10" d="M3.93352 5.56471l0 -0.56461c0.05713,0 0.17439,0.0158 0.21193,-0.01787l-0.22424 0.01206 -0.00555 0.44524c-0.00085,0.08614 -0.00794,0.08041 0.01786,0.12518z"/>
   <path class="fil10" d="M3.65207 5.56471l0.01759 -0.28176c0,-0.09551 0.00676,-0.19419 -0.00503,-0.29476l-0.22449 -0.00596c0.01385,0.03404 0.17255,0.01787 0.21193,0.01787l0 0.56461z"/>
   <path class="fil11" d="M2.00768 2.55573l-0.54577 0.00003 0.0043 -0.10234c-0.02335,0.04341 -0.02224,0.05528 -0.01247,0.11157 0.085,0.01728 0.29954,0.00746 0.41012,0.00847 0.06091,0.00056 0.09553,0.00947 0.14382,-0.01772z"/>
   <path class="fil12" d="M5.80445 2.55543l-0.22632 0.00064c0.00403,0.00229 0.00977,0.0015 0.01216,0.00679l0.11397 0.01121c0.11368,-0.00121 0.34608,0.00736 0.42697,-0.00972l-0.0142 -0.12088 0.00596 0.11192 -0.31855 0.00004z"/>
   <path class="fil13" d="M5.23501 7.14182c0.02537,-0.04434 0.01627,-0.04395 0.01638,-0.10734 0.05756,-0.00007 0.06139,0.00799 0.10221,-0.01412l-0.11621 0.00143 -0.00238 0.12003z"/>
  </g>
 </g>
</svg>
