<?xml version="1.0" encoding="UTF-8"?>
<!DOCTYPE svg PUBLIC "-//W3C//DTD SVG 1.0//EN" "http://www.w3.org/TR/2001/REC-SVG-20010904/DTD/svg10.dtd">
<!-- Creator: CorelDRAW 2019 (64 Bit) -->
<svg xmlns="http://www.w3.org/2000/svg" xml:space="preserve" width="13.5466cm" height="10.4452cm" version="1.0" style="shape-rendering:geometricPrecision; text-rendering:geometricPrecision; image-rendering:optimizeQuality; fill-rule:evenodd; clip-rule:evenodd"
viewBox="0 0 8.12225 6.26267"
 xmlns:xlink="http://www.w3.org/1999/xlink">
 <defs>
  <style type="text/css">
   <![CDATA[
    .fil2 {fill:#E6E7E8}
    .fil3 {fill:#BDBFC1}
    .fil5 {fill:black}
    .fil4 {fill:#FFC250}
    .fil1 {fill:#FFD064}
    .fil0 {fill:#FFE07D}
   ]]>
  </style>
 </defs>
 <g id="Camada_x0020_1">
  <metadata id="CorelCorpID_0Corel-Layer"/>
  <path class="fil0" d="M1.83219 4.59486l0.54487 -0.94375 -1.3645 0 0.54487 0.94375c0.06106,0.10577 0.2137,0.10577 0.27476,0z"/>
  <path class="fil1" d="M6.29007 6.06409l-0.54487 -0.94375 1.36452 0 -0.54487 0.94375c-0.06107,0.10577 -0.21372,0.10577 -0.27477,0l-0.00001 0z"/>
  <path class="fil0" d="M3.40467 3.91191l-1.70012 0c-0.87613,0 -1.58638,-0.71025 -1.58638,-1.58638l0 -0.62098c0,-0.87613 0.71025,-1.58638 1.58638,-1.58638l1.70012 0c0.87612,0 1.58637,0.71025 1.58637,1.58638l0 0.62098c0,0.87613 -0.71025,1.58638 -1.58637,1.58638z"/>
  <path class="fil1" d="M4.34053 0.42364c0.19201,0.26236 0.30547,0.58585 0.30547,0.93587l0 0.62098c0,0.87613 -0.71025,1.58638 -1.58637,1.58638l-1.70012 0c-0.35003,0 -0.67352,-0.11346 -0.93587,-0.30547 0.28861,0.39434 0.7548,0.65051 1.28091,0.65051l1.70012 0c0.87612,0 1.58637,-0.71025 1.58637,-1.58638l0 -0.62098c0,-0.52609 -0.25617,-0.9923 -0.65051,-1.28091z"/>
  <circle class="fil2" cx="1.80858" cy="2.01505" r="1.07539"/>
  <circle class="fil3" cx="1.80858" cy="1.90568" r="0.44079"/>
  <path class="fil3" d="M2.06209 2.28446l-0.50701 0c-0.2657,0 -0.49579,0.15188 -0.60863,0.37346 0.19609,0.26253 0.50926,0.43251 0.86213,0.43251 0.35287,0 0.66606,-0.16998 0.86213,-0.43251 -0.11284,-0.22159 -0.34293,-0.37346 -0.60863,-0.37346l0.00001 0z"/>
  <path class="fil1" d="M6.41771 5.36898l-1.70012 0c-0.87612,0 -1.58637,-0.71025 -1.58637,-1.58637l0 -0.62098c0,-0.87613 0.71025,-1.58638 1.58637,-1.58638l1.70012 0c0.87613,0 1.58638,0.71025 1.58638,1.58638l0 0.62098c0,0.87612 -0.71024,1.58637 -1.58638,1.58637z"/>
  <path class="fil4" d="M7.35396 1.88099c0.19218,0.26242 0.30574,0.58606 0.30574,0.93625l0 0.62098c0,0.87612 -0.71025,1.58637 -1.58638,1.58637l-1.70012 -0.00001c-0.35019,0 -0.67381,-0.11355 -0.93624,-0.30574 0.28862,0.39412 0.7547,0.65013 1.28063,0.65013l1.70012 0c0.87614,0 1.58638,-0.71025 1.58638,-1.58637l0 -0.62098c0,-0.52593 -0.25601,-0.99201 -0.65013,-1.28064l0.00001 0z"/>
  <path class="fil1" d="M1.83219 4.59486l0.54487 -0.94375 -1.3645 0 0.54487 0.94375c0.06106,0.10577 0.2137,0.10577 0.27476,0z"/>
  <path class="fil4" d="M6.29007 6.06409l-0.54487 -0.94375 1.36452 0 -0.54487 0.94375c-0.06107,0.10577 -0.21372,0.10577 -0.27477,0l-0.00001 0z"/>
  <circle class="fil2" cx="4.82164" cy="3.47212" r="1.07539"/>
  <circle class="fil3" cx="4.82164" cy="3.36274" r="0.44079"/>
  <path class="fil3" d="M5.07512 3.74154l-0.50701 0c-0.2657,0 -0.49578,0.15188 -0.60862,0.37346 0.19609,0.26252 0.50926,0.4325 0.86213,0.4325 0.35287,0 0.66606,-0.16998 0.86213,-0.4325 -0.11282,-0.2216 -0.34291,-0.37346 -0.60863,-0.37346l0.00001 0z"/>
  <path class="fil5" d="M1.80858 1.05783c0.15585,0 0.31047,0.03825 0.44717,0.11062 0.05768,0.03052 0.1292,0.00853 0.15973,-0.04915 0.03054,-0.05768 0.00853,-0.1292 -0.04915,-0.15973 -0.17065,-0.09033 -0.36351,-0.13809 -0.55776,-0.13809 -0.65814,0 -1.19356,0.53542 -1.19356,1.19356 0,0.65814 0.53543,1.19356 1.19356,1.19356 0.65813,0 1.19356,-0.53542 1.19356,-1.19356 0,-0.22106 -0.06092,-0.43698 -0.17619,-0.62442 -0.03419,-0.05559 -0.10695,-0.07296 -0.16256,-0.03876 -0.05559,0.03419 -0.07294,0.10697 -0.03876,0.16256 0.09236,0.15018 0.14117,0.32329 0.14117,0.50062 0,0.15285 -0.0362,0.29734 -0.1002,0.42564 -0.10115,-0.11641 -0.23315,-0.20073 -0.38083,-0.24316 0.05313,-0.08673 0.08276,-0.18761 0.08276,-0.29184 0,-0.30822 -0.25076,-0.55898 -0.55896,-0.55898 -0.3082,0 -0.55896,0.25076 -0.55896,0.55898 0,0.10422 0.02965,0.20512 0.08276,0.29183 -0.14768,0.04245 -0.27968,0.12677 -0.38083,0.24318 -0.06399,-0.12831 -0.1002,-0.2728 -0.1002,-0.42564 -0.00002,-0.52779 0.4294,-0.95721 0.95721,-0.95721l0.00001 0zm-0.2535 1.34481c0.06182,0.00698 0.12566,-0.02332 0.142,-0.08678 0.01412,-0.05126 -0.00773,-0.10565 -0.05338,-0.13288 -0.09877,-0.05892 -0.15772,-0.16258 -0.15772,-0.2773 0,-0.17789 0.14473,-0.32264 0.32262,-0.32264 0.17789,0 0.32262,0.14473 0.32262,0.32264 0,0.11471 -0.05897,0.21838 -0.15772,0.2773 -0.04567,0.02724 -0.06752,0.08162 -0.05338,0.13288 0.01636,0.06345 0.08016,0.09374 0.14198,0.08678 0.18806,0 0.36008,0.09199 0.46471,0.24419 -0.17555,0.19933 -0.43235,0.32543 -0.71821,0.32543 -0.28585,0 -0.54267,-0.12611 -0.71821,-0.32543 0.10462,-0.1522 0.27663,-0.24419 0.4647,-0.24419z"/>
  <path class="fil5" d="M6.42846 1.45707l-1.33576 0c-0.0536,-0.38319 -0.23659,-0.73581 -0.52244,-1.00235 -0.31448,-0.29324 -0.72461,-0.45472 -1.15483,-0.45472l-1.72164 0c-0.93397,0.00002 -1.69379,0.75984 -1.69379,1.69379l0 0.6425c0,0.68964 0.4122,1.30475 1.05013,1.56706 0.01471,0.00604 0.02992,0.00892 0.0449,0.00892 0.04648,0 0.09057,-0.02762 0.10933,-0.07326 0.02483,-0.06036 -0.004,-0.12942 -0.06436,-0.15423 -0.54895,-0.22571 -0.90366,-0.75502 -0.90366,-1.34847l0 -0.6425c0,-0.80364 0.65381,-1.45744 1.45744,-1.45744l1.72165 0c0.7157,0 1.32405,0.52676 1.43802,1.22072l-0.14662 -0.00001c-0.93396,0 -1.69379,0.75983 -1.69379,1.69379l0 0.6425 0 0.00038 -0.78654 0c-0.04222,0 -0.08122,0.02253 -0.10234,0.05909l-0.39525 0.68457c-0.0099,0.01714 -0.02562,0.0197 -0.03412,0.0197 -0.00849,0 -0.02421,-0.00255 -0.03411,-0.0197l-0.17487 -0.30292c-0.03263,-0.05652 -0.10491,-0.07589 -0.16143,-0.04325 -0.05652,0.03263 -0.07589,0.1049 -0.04325,0.16142l0.17488 0.30291c0.04983,0.08632 0.1391,0.13785 0.23878,0.13787 0.09967,0 0.18896,-0.05154 0.23878,-0.13787l0.36112 -0.62549 0.73494 -0.00001c0.1155,0.82228 0.82354,1.45707 1.67716,1.45707l1.11369 0 0.36815 0.63764c0.04984,0.08633 0.13911,0.13787 0.2388,0.13787 0.09969,0 0.18896,-0.05154 0.23878,-0.13787l0.45294 -0.7845c0.19933,-0.089 0.37742,-0.21421 0.52985,-0.37261 0.04526,-0.04702 0.04382,-0.12183 -0.0032,-0.1671 -0.04702,-0.04527 -0.12183,-0.04383 -0.1671,0.0032 -0.13935,0.14479 -0.30352,0.25734 -0.48798,0.33455 -0.02386,0.00998 -0.04377,0.02753 -0.05671,0.04992l-0.47249 0.81835c-0.00988,0.01714 -0.0256,0.01968 -0.03409,0.01968 -0.00849,0 -0.02422,-0.00255 -0.03412,-0.0197l-0.40226 -0.69674c-0.02112,-0.03657 -0.06013,-0.05909 -0.10234,-0.05909l-1.18192 0.00001c-0.80364,0 -1.45743,-0.65381 -1.45743,-1.45743l0 -0.6425c0,-0.80364 0.65381,-1.45744 1.45743,-1.45744l1.72165 0c0.80364,0 1.45744,0.65381 1.45744,1.45744l0 0.6425c0,0.21142 -0.04423,0.41523 -0.13146,0.6058 -0.02716,0.05935 -0.00108,0.12948 0.05827,0.15662 0.05933,0.02716 0.12947,0.00108 0.15664,-0.05827 0.10145,-0.22166 0.1529,-0.45859 0.1529,-0.70417l0 -0.6425c0.00002,-0.93394 -0.75981,-1.69376 -1.69378,-1.69376l0 0.00001z"/>
  <path class="fil5" d="M3.62806 3.47211c0,0.65814 0.53543,1.19355 1.19355,1.19355 0.65814,0 1.19356,-0.53543 1.19356,-1.19355 0,-0.65813 -0.53543,-1.19356 -1.19356,-1.19356 -0.65812,0 -1.19355,0.53543 -1.19355,1.19356zm1.19356 0.95723c-0.28585,0 -0.54267,-0.12611 -0.71821,-0.32544 0.10463,-0.15221 0.27664,-0.24419 0.46471,-0.24419 0.06182,0.00698 0.12566,-0.02332 0.142,-0.08678 0.01412,-0.05126 -0.00773,-0.10565 -0.0534,-0.13289 -0.09877,-0.0589 -0.15772,-0.16256 -0.15772,-0.27729 0,-0.17789 0.14473,-0.32262 0.32264,-0.32262 0.17788,0 0.32262,0.14473 0.32262,0.32262 0,0.11473 -0.05897,0.21838 -0.15772,0.27729 -0.04567,0.02724 -0.06752,0.08163 -0.0534,0.13289 0.01634,0.06345 0.08018,0.09374 0.142,0.08678 0.18806,0 0.36008,0.09199 0.46471,0.24419 -0.17555,0.19932 -0.43237,0.32544 -0.71823,0.32544zm0.95724 -0.95723c0,0.15285 -0.0362,0.29734 -0.1002,0.42564 -0.10115,-0.11641 -0.23315,-0.20073 -0.38083,-0.24316 0.05311,-0.08673 0.08276,-0.18762 0.08276,-0.29184 0,-0.30822 -0.25074,-0.55896 -0.55896,-0.55896 -0.30822,0 -0.55898,0.25076 -0.55898,0.55896 0,0.10422 0.02965,0.20512 0.08276,0.29184 -0.14766,0.04245 -0.27965,0.12677 -0.38082,0.24318 -0.06399,-0.12831 -0.1002,-0.2728 -0.1002,-0.42566 0,-0.52781 0.42941,-0.95722 0.95722,-0.95722 0.52782,0.00002 0.95724,0.42942 0.95724,0.95722l0.00001 0z"/>
  <path class="fil5" d="M7.31636 3.08068l-0.86915 0c-0.06526,0 -0.11817,0.05291 -0.11817,0.11817 0,0.06526 0.05291,0.11817 0.11817,0.11817l0.86915 -0.00001c0.06526,0 0.11817,-0.05291 0.11817,-0.11817 0,-0.06526 -0.05291,-0.11817 -0.11817,-0.11817l0 0.00001z"/>
  <path class="fil5" d="M7.31636 3.6272l-0.86915 0c-0.06526,0 -0.11817,0.05291 -0.11817,0.11817 0,0.06526 0.05291,0.11817 0.11817,0.11817l0.86915 0c0.06526,0 0.11817,-0.05291 0.11817,-0.11817 0,-0.06525 -0.05291,-0.11817 -0.11817,-0.11817z"/>
 </g>
</svg>
