<?xml version="1.0" encoding="UTF-8"?>
<!DOCTYPE svg PUBLIC "-//W3C//DTD SVG 1.0//EN" "http://www.w3.org/TR/2001/REC-SVG-20010904/DTD/svg10.dtd">
<!-- Creator: CorelDRAW 2019 (64 Bit) -->
<svg xmlns="http://www.w3.org/2000/svg" xml:space="preserve" width="13.5467cm" height="11.1873cm" version="1.0" style="shape-rendering:geometricPrecision; text-rendering:geometricPrecision; image-rendering:optimizeQuality; fill-rule:evenodd; clip-rule:evenodd"
viewBox="0 0 3.66255 3.02467"
 xmlns:xlink="http://www.w3.org/1999/xlink">
 <defs>
  <style type="text/css">
   <![CDATA[
    .fil3 {fill:#D2D3D5}
    .fil4 {fill:black}
    .fil1 {fill:#86BEEC}
    .fil2 {fill:#FDD76F}
    .fil0 {fill:#FDE588}
   ]]>
  </style>
 </defs>
 <g id="Camada_x0020_1">
  <metadata id="CorelCorpID_0Corel-Layer"/>
  <path class="fil0" d="M1.88321 2.46504c0.03249,-0.31661 -0.1486,-0.70219 -0.1904,-0.77629 -0.17,-0.30176 0.08341,-0.43906 0.20546,-0.24687l0.13056 0.20586 0.2538 -1.14165c0.03368,-0.15178 0.25321,-0.14583 0.21615,0.09411l-0.10679 0.69268c-0.01426,0.05389 0.07331,0.09273 0.09827,0.0212l0.28372 -0.81691c0.05805,-0.16683 0.25558,-0.10144 0.20843,0.06578l-0.21952 0.77748c-0.01902,0.06717 0.07014,0.11967 0.10639,0.03309l0.26549 -0.63522c0.07331,-0.17495 0.2867,-0.10283 0.21081,0.08955l-0.25499 0.64512c-0.04339,0.10996 0.01665,0.14919 0.07945,0.05469l0.2334 -0.35129c0.0842,-0.12661 0.26906,-0.0208 0.18248,0.13037l-0.69305 1.21139 -0.05527 0.20408 -0.58329 -0.00555c0,-0.00001 -0.11294,-0.04598 -0.3711,-0.25163l-0 0z"/>
  <path class="fil0" d="M1.40176 2.31267c0.05132,-0.31424 0.32671,-0.63938 0.38615,-0.7 0.24291,-0.24687 0.03408,-0.4456 -0.13393,-0.29185l-0.1797 0.16465 0.0527 -1.1684c0.00713,-0.15534 -0.20645,-0.20686 -0.23319,0.03467l-0.07747 0.69644c-0.00039,0.05588 -0.0951,0.07053 -0.10045,-0.00515l-0.06103 -0.86267c-0.01228,-0.17614 -0.22012,-0.16445 -0.21814,0.00911l0.00911 0.80779c0.00079,0.06994 -0.09887,0.09748 -0.11135,0.00436l-0.09075 -0.68257c-0.02497,-0.18803 -0.24984,-0.17396 -0.22666,0.0315l0.07787 0.68931c0.01328,0.1175 -0.05508,0.13968 -0.09094,0.0321l-0.13374 -0.40003c-0.04834,-0.14424 -0.2544,-0.09035 -0.21022,0.07827l0.35327 1.35029 0 0.21141 0.48839 0.16247c0.06955,-0.02933 0.44064,-0.12681 0.50008,-0.16169l0 0.00001z"/>
  <path class="fil1" d="M2.93604 2.91764c0.01881,-0.06949 -0.02105,-0.14144 -0.08871,-0.16311l-0.00879 -0.00245 -0.11344 -0.03066 -0.08216 -0.02208c0.06765,0.02167 0.10751,0.09362 0.0887,0.16311 -0.01921,0.07133 -0.09933,0.11242 -0.16474,0.09463l0.20439 0.05539c0.07133,0.01922 0.14553,-0.0235 0.16474,-0.09483l0 0z"/>
  <path class="fil2" d="M1.69974 1.29902c0.05647,0.03923 0.06875,0.12086 0.00198,0.23003 -0.0214,0.03527 -0.04834,0.06499 -0.07668,0.09471 -0.07192,0.07668 -0.31383,0.38993 -0.36773,0.68812l0.13275 0c0.00396,0 0.00793,0.0002 0.01169,0.00079 0.03725,-0.22864 0.21794,-0.52307 0.37823,-0.69168 0.00297,-0.00317 0.00555,-0.00595 0.00793,-0.00832 0.18208,-0.18525 0.11016,-0.34317 -0.00793,-0.34575 -0.02813,-0.00079 -0.05905,0.00753 -0.08955,0.02635 0.00317,0.00177 0.00634,0.00376 0.00931,0.00574z"/>
  <path class="fil2" d="M1.3655 1.44603c0,0.085 0.08896,0.08619 0.10877,0.03943l0.0527 -1.1684c0.00357,-0.07688 -0.04715,-0.12839 -0.10243,-0.13137 -0.01605,-0.00079 -0.05766,1.16245 -0.05905,1.26033z"/>
  <path class="fil2" d="M1.00352 1.05413c0.00615,0.09174 0.11531,0.11393 0.11531,0.00535l-0.02021 -0.25996 -0.04379 -0.61917c-0.00634,-0.08975 -0.0634,-0.13077 -0.11749,-0.12641l0.06617 1.00019z"/>
  <path class="fil2" d="M0.63519 1.01272c0.01526,0.12106 0.11234,0.08619 0.09807,-0.02001l-0.03725 -0.28076 -0.0523 -0.3929c-0.0111,-0.08361 -0.06162,-0.1272 -0.11254,-0.13196l0.10402 0.82563z"/>
  <path class="fil2" d="M0.26239 1.10668c0.03148,0.08993 0.13081,0.05335 0.09974,-0.03945l-0.08604 -0.25692 -0.05519 -0.16495c-0.02555,-0.07624 -0.09382,-0.09872 -0.14818,-0.0793l0.18967 0.54063z"/>
  <path class="fil2" d="M2.7528 2.4803l-0.05508 0.20408 0.12601 0.03408 0.01387 0.00376 0.05527 -0.20408 0.6348 -1.10935 0.05825 -0.10204c0.0416,-0.07271 0.02041,-0.13493 -0.02199,-0.16584l-0.81113 1.33938z"/>
  <rect class="fil3" transform="matrix(1.1405 0.309795 -0.23985 0.883004 1.77675 2.44428)" width="1.02533" height="0.28496" rx="0.14248" ry="0.14248"/>
  <path class="fil2" d="M2.98591 1.4327c-0.05048,0.11099 0.01717,0.15391 0.08196,0.05641l0.13715 -0.20644 0.18845 -0.47645c0.03597,-0.09136 0.00879,-0.15657 -0.03863,-0.18253l-0.36893 0.809z"/>
  <path class="fil2" d="M2.7629 1.34043l0.0741 -0.26253 0.14543 -0.51495c0.0216,-0.07688 -0.00852,-0.13215 -0.0529,-0.15335l-0.23656 0.81255c-0.01565,0.04517 -0.03824,0.12165 0.01902,0.1912 0.03884,0.04715 0.12026,0.03269 0.13532,-0.00733 -0.04122,0.03607 -0.10026,-0.0097 -0.08441,-0.06557l0 -0z"/>
  <path class="fil2" d="M2.27471 1.29842c-0.00159,0.1175 0.16722,0.16009 0.21299,0.02774 0.00059,-0.00159 0.00436,-0.01288 0.00258,-0.01209 -0.02497,0.07153 -0.11254,0.03269 -0.09827,-0.0212l0.00258 -0.01665 0.03547 -0.22964 0.06875 -0.4464c0.01882,-0.12126 -0.02793,-0.18268 -0.08322,-0.19437 -0.00595,-0.00118 -0.12938,0.83396 -0.14087,0.8926l-0 0z"/>
  <path class="fil4" d="M2.64302 2.18035l-0.45331 -0.25559c-0.0258,-0.01455 -0.05852,-0.00543 -0.07307,0.02038 -0.01455,0.02581 -0.00543,0.05852 0.02038,0.07307l0.45331 0.25559c0.00833,0.00469 0.01737,0.00692 0.0263,0.00692 0.01873,0 0.03692,-0.00983 0.04678,-0.0273 0.01455,-0.02581 0.00543,-0.05852 -0.02038,-0.07307z"/>
  <path class="fil4" d="M2.66846 1.8932l-0.25558 -0.16584c-0.02484,-0.01612 -0.05807,-0.00906 -0.0742,0.0158 -0.01612,0.02485 -0.00904,0.05807 0.01581,0.0742l0.25558 0.16584c0.00902,0.00585 0.01914,0.00865 0.02914,0.00865 0.01756,0 0.03477,-0.00862 0.04505,-0.02445 0.01612,-0.02485 0.00904,-0.05807 -0.01581,-0.0742l0 -0z"/>
  <path class="fil4" d="M1.1767 1.73346l-0.50423 0.12859c-0.02871,0.00732 -0.04604,0.03653 -0.03872,0.06523 0.00619,0.02426 0.028,0.0404 0.05193,0.0404 0.00439,0 0.00885,-0.00054 0.0133,-0.00167l0.50423 -0.12859c0.02871,-0.00732 0.04604,-0.03653 0.03872,-0.06523 -0.00732,-0.02871 -0.03654,-0.04602 -0.06523,-0.03872l-0 0z"/>
  <path class="fil4" d="M0.7392 1.68296c0.00546,0 0.01101,-0.00084 0.01647,-0.0026l0.29006 -0.09352c0.0282,-0.00909 0.04368,-0.03932 0.03459,-0.06751 -0.00909,-0.0282 -0.03934,-0.04369 -0.06751,-0.03459l-0.29006 0.09352c-0.0282,0.00909 -0.04368,0.03932 -0.03459,0.06751 0.00732,0.02273 0.02838,0.0372 0.05104,0.0372z"/>
  <rect class="fil3" x="0.29579" y="2.31154" width="1.21176" height="0.26074" rx="0.16839" ry="0.13037"/>
  <path class="fil4" d="M2.94285 2.5388l0.68962 -1.2054c0.06206,-0.10835 0.01904,-0.20176 -0.04719,-0.24269 -0.06666,-0.0412 -0.16586,-0.0352 -0.22651,0.05598l-0.18403 0.27699c-0.00217,0.00328 -0.00722,0.00064 -0.00577,-0.00302l0.22653 -0.57313c0.05132,-0.13011 -0.00401,-0.22138 -0.07714,-0.25111 -0.07549,-0.0307 -0.18282,0.00132 -0.23305,0.12119l-0.26548 0.63519c-0.00189,0.0045 -0.0054,0.00258 -0.00443,-0.00087l0.21867 -0.77443c0.0327,-0.11598 -0.02606,-0.20053 -0.10101,-0.22411 -0.07427,-0.02338 -0.17015,0.01245 -0.20973,0.12617l-0.26461 0.76189c-0.00089,0.00258 -0.00476,0.00162 -0.00434,-0.00108l0.09744 -0.632c0.024,-0.15541 -0.04718,-0.24036 -0.12835,-0.25563 -0.0763,-0.01433 -0.16944,0.03474 -0.19318,0.14169l-0.22563 1.01493c-0.00001,0 -0.00002,0 -0.00004,0.00001l-0.05372 -0.0847 0 -0.00001c0.00793,-0.06565 -0.01202,-0.12134 -0.04887,-0.15955 -0.06211,-0.0644 -0.17969,-0.07955 -0.28427,0.01615l-0.06799 0.06229c-0.00592,0.00542 -0.01543,0.00097 -0.01506,-0.00704l0.04587 -1.01699c0.00503,-0.10946 -0.07205,-0.18114 -0.14948,-0.1872 -0.08239,-0.00649 -0.17329,0.05708 -0.19061,0.21349l-0.0696 0.62572c-0.00043,0.00383 -0.00602,0.00371 -0.00629,-0.00013l-0.05623 -0.79479c-0.00837,-0.12003 -0.09171,-0.17964 -0.16929,-0.17648 -0.07856,0.00318 -0.15737,0.06945 -0.156,0.18993l0.00907 0.80401c0.00004,0.00362 -0.00385,0.00524 -0.00449,0.00047l-0.09073 -0.68254c-0.0171,-0.12877 -0.11231,-0.18771 -0.19318,-0.17776 -0.0784,0.00963 -0.15564,0.08331 -0.13995,0.22234l0.06886 0.60965c0.00048,0.00425 -0.00556,0.00559 -0.00692,0.00153l-0.1046 -0.31288c-0.03481,-0.10385 -0.12902,-0.13551 -0.20415,-0.11312 -0.0746,0.02226 -0.14047,0.10122 -0.10882,0.22201l0.35152 1.34361 0 0.16335c-0.06867,0.02673 -0.11749,0.09351 -0.11749,0.17152 0,0.10147 0.08254,0.18401 0.18401,0.18401l0.36039 0c0.02963,0 0.05364,-0.02401 0.05364,-0.05364 0,-0.02962 -0.02401,-0.05364 -0.05364,-0.05364l-0.3604 0c-0.0423,0 -0.07673,-0.03442 -0.07673,-0.07674 0,-0.04231 0.03442,-0.07674 0.07673,-0.07674l0.95102 0c0.04231,0 0.07674,0.03442 0.07674,0.07674 0,0.04231 -0.03442,0.07674 -0.07674,0.07674l-0.34514 0c-0.02963,0 -0.05364,0.02401 -0.05364,0.05364 0,0.02962 0.02401,0.05364 0.05364,0.05364l0.34514 0c0.10146,0 0.18401,-0.08255 0.18401,-0.18401 0,-0.0705 -0.03988,-0.13184 -0.09825,-0.16273 0.03872,-0.16988 0.1418,-0.34262 0.23069,-0.46618l0.00004 -0c0.06765,0.15423 0.14556,0.39198 0.13931,0.59719 -0.02311,0.0032 -0.04565,0.01084 -0.06654,0.02285 -0.04272,0.02454 -0.07326,0.06411 -0.08601,0.11146 -0.02633,0.09804 0.03189,0.19924 0.12974,0.2256l0.31383 0.0848c0.02857,0.00773 0.05805,-0.00918 0.06577,-0.03779 0.00773,-0.0286 -0.00919,-0.05805 -0.03779,-0.06577l-0.31388 -0.08481c-0.04081,-0.011 -0.06507,-0.05324 -0.05408,-0.09415 0.00528,-0.01961 0.01801,-0.03605 0.03585,-0.04629 0.01603,-0.00921 0.03432,-0.01228 0.05219,-0.00894 0.00201,0.00044 0.0041,0.00079 0.00609,0.00134l0.27806 0.07501 0.64256 0.17348c0.03927,0.01215 0.06234,0.05339 0.05161,0.09334 -0.00528,0.01961 -0.01802,0.03607 -0.03587,0.04634 -0.01785,0.01027 -0.03849,0.01301 -0.05806,0.00775l-0.381 -0.10283c-0.02859,-0.00773 -0.05804,0.0092 -0.06577,0.03781 -0.00772,0.0286 0.00921,0.05804 0.03781,0.06576l0.38103 0.10284c0.0158,0.00426 0.03185,0.00636 0.04781,0.00636 0.03181,0 0.06327,-0.00836 0.0917,-0.02472 0.04269,-0.02457 0.0732,-0.06414 0.08593,-0.11145 0.01864,-0.06941 -0.00524,-0.14048 -0.05563,-0.18542l0.04451 -0.16427zm-1.58512 -0.28056l-0.8908 0 0 -0.15777c0,-0.00459 -0.00059,-0.00914 -0.00175,-0.01358l-0.35327 -1.35031c-0.01459,-0.05565 0.00888,-0.08402 0.0357,-0.09201 0.02386,-0.00713 0.05697,0.00024 0.07175,0.04436l0.13373 0.39999c0.03797,0.11391 0.10443,0.10877 0.12388,0.10446 0.04211,-0.00929 0.08294,-0.05608 0.07124,-0.15954l-0.07786 -0.68931c-0.00754,-0.06686 0.01788,-0.10032 0.04642,-0.10383 0.03055,-0.00377 0.06566,0.02439 0.07377,0.08541l0.09076 0.68263c0.01046,0.07801 0.06469,0.10937 0.11372,0.10579 0.05927,-0.00429 0.10514,-0.05607 0.10444,-0.11787l-0.00911 -0.8078c-0.00063,-0.0548 0.0262,-0.08043 0.05306,-0.08152 0.02409,-0.00102 0.05386,0.01853 0.05793,0.07681l0.06103 0.86267c0.00487,0.06887 0.05693,0.10324 0.10637,0.10178 0.05522,-0.00175 0.09902,-0.04395 0.10115,-0.09672l0.07722 -0.69423c0.00942,-0.08511 0.0446,-0.12083 0.07561,-0.11837 0.02615,0.00205 0.05281,0.02914 0.05068,0.07538l-0.05264 1.16707c-0.00072,0.0159 0.00484,0.03181 0.0165,0.04265 0.02151,0.01999 0.05313,0.01909 0.07326,0.00064l0.17969 -0.16463c0.05644,-0.05165 0.10934,-0.04699 0.1346,-0.02079 0.03733,0.0387 0.02974,0.12888 -0.07518,0.23552 -0.00325,0.0033 -0.31325,0.33218 -0.39188,0.68312l-0.00001 0zm1.48858 0.23326c-0.00227,0.00397 -0.00403,0.00821 -0.00522,0.01263l-0.04123 0.1522 -0.52489 -0.1416 -0.33502 -0.09046c-0.00001,0 -0.00001,-0.00001 -0.00001,-0.00002 0.0127,-0.28886 -0.12309,-0.60316 -0.17244,-0.70705 0.00001,-0.00006 0.00001,-0.00011 0.00002,-0.00016 0.02491,-0.03039 0.04553,-0.05339 0.05862,-0.06674 0.03299,-0.03353 0.05868,-0.06662 0.0781,-0.09871l0.00008 0 0.07921 0.12489c0.01164,0.01834 0.03318,0.02785 0.05455,0.02411 0.02139,-0.00374 0.0384,-0.02 0.04311,-0.0412l0.25381 -1.14166c0.01001,-0.04515 0.0429,-0.06437 0.06863,-0.05951 0.03038,0.00571 0.0552,0.0493 0.04215,0.13383l-0.10644 0.69041c-0.01174,0.05136 0.01941,0.10344 0.07217,0.11961 0.04708,0.01441 0.10665,-0.00509 0.12943,-0.07038l0.28371 -0.81688c0.01923,-0.05525 0.05309,-0.06636 0.07619,-0.05907 0.02564,0.00807 0.04484,0.03984 0.02996,0.09264l-0.21952 0.77744c-0.01682,0.0594 0.01395,0.12129 0.07005,0.14089 0.04497,0.01572 0.10719,-0.00024 0.13745,-0.07251l0.26548 -0.63517c0.02381,-0.05683 0.06515,-0.07485 0.09367,-0.06322 0.02663,0.01083 0.04245,0.04977 0.01778,0.11234l-0.25501 0.64515c-0.03821,0.09683 -0.01102,0.15263 0.02716,0.17256 0.01763,0.00921 0.08038,0.03152 0.14686,-0.0685l0.23338 -0.35127c0.02573,-0.03871 0.05959,-0.03718 0.08076,-0.02411 0.02381,0.01471 0.03908,0.04821 0.01049,0.09813l-0.69304 1.21139z"/>
 </g>
</svg>
